<?xml version="1.0" encoding="utf-8"?>
<!-- Generator: Adobe Illustrator 25.2.1, SVG Export Plug-In . SVG Version: 6.00 Build 0)  -->
<svg version="1.1" id="Layer_1" xmlns="http://www.w3.org/2000/svg" xmlns:xlink="http://www.w3.org/1999/xlink" x="0px" y="0px"
	 viewBox="0 0 253.3 252.3" style="enable-background:new 0 0 253.3 252.3;" xml:space="preserve">
<style type="text/css">
	.st0{fill:url(#SVGID_1_);}
	.st1{fill:url(#SVGID_2_);}
	.st2{fill:url(#SVGID_3_);}
	.st3{fill:url(#SVGID_4_);}
	.st4{fill:url(#SVGID_5_);}
	.st5{fill:url(#SVGID_6_);}
	.st6{fill:url(#SVGID_7_);}
	.st7{fill:url(#SVGID_8_);}
	.st8{fill:url(#SVGID_9_);}
	.st9{fill:url(#SVGID_10_);}
	.st10{fill:url(#SVGID_11_);}
	.st11{fill:url(#SVGID_12_);}
	.st12{fill:url(#SVGID_13_);}
	.st13{fill:url(#SVGID_14_);}
	.st14{fill:url(#SVGID_15_);}
	.st15{fill:url(#SVGID_16_);}
	.st16{fill:url(#SVGID_17_);}
	.st17{fill:url(#SVGID_18_);}
	.st18{fill:url(#SVGID_19_);}
	.st19{fill:url(#SVGID_20_);}
	.st20{fill:url(#SVGID_21_);}
	.st21{fill:url(#SVGID_22_);}
	.st22{fill:url(#SVGID_23_);}
	.st23{fill:url(#SVGID_24_);}
	.st24{fill:url(#SVGID_25_);}
	.st25{fill:url(#SVGID_26_);}
	.st26{fill:url(#SVGID_27_);}
	.st27{fill:url(#SVGID_28_);}
	.st28{fill:url(#SVGID_29_);}
	.st29{fill:url(#SVGID_30_);}
	.st30{fill:url(#SVGID_31_);}
	.st31{fill:url(#SVGID_32_);}
	.st32{fill:url(#SVGID_33_);}
	.st33{fill:url(#SVGID_34_);}
	.st34{fill:url(#SVGID_35_);}
	.st35{fill:url(#SVGID_36_);}
	.st36{fill:url(#SVGID_37_);}
	.st37{fill:url(#SVGID_38_);}
	.st38{fill:url(#SVGID_39_);}
	.st39{fill:url(#SVGID_40_);}
	.st40{fill:url(#SVGID_41_);}
	.st41{fill:url(#SVGID_42_);}
	.st42{fill:url(#SVGID_43_);}
	.st43{fill:url(#SVGID_44_);}
	.st44{fill:url(#SVGID_45_);}
</style>
<g id="GRE_Logo">
	<g>
		<g>
			<g>
				
					<linearGradient id="SVGID_1_" gradientUnits="userSpaceOnUse" x1="69.3278" y1="138.1358" x2="266.631" y2="-112.9773" gradientTransform="matrix(1 0 0 -1 0 241.2)">
					<stop  offset="4.897192e-05" style="stop-color:#DAB066"/>
					<stop  offset="0.2454" style="stop-color:#E6C996"/>
					<stop  offset="0.4745" style="stop-color:#DAB066"/>
					<stop  offset="0.7398" style="stop-color:#E6C996"/>
					<stop  offset="1" style="stop-color:#DAB066"/>
				</linearGradient>
				<path class="st0" d="M43.6,100.8c0.4-1.3,1.4-2.2,2.3-3.1c1.2-1.1,2.4-2,3.7-3c1.2-0.9,2.3-1.8,3.5-2.9c0.8-0.7,1.6-1.3,2.4-2.1
					c0.8-0.6,1.4-1.3,2.2-1.8c0.5-0.4,1.1-0.6,1.6-0.5c0.7,0.1,1.4,0.5,2.1,0.7c0.3,0.1,0.8,0.1,0.8-0.3c0-1-0.2-2.7,1.2-2.6
					c0.4,0,0.9,0.1,1.3-0.2c0.5-0.4,0.4-1.3,0.3-1.7c-0.1,0.2-0.3,0.4-0.4,0.7c0.1,0,0.5-0.1,0.5-0.1c0.1,0,0.2,0.2,0.4,0.4
					c0.4,0.5,0.9,0.9,1.3,1.2c1,0.5,2.1,0.9,3.2,1.1c0.3,0.1,0.6-0.1,0.6-0.4c0.1-1.2,0-2.3,0.1-3.5c-0.1,0.1-0.1,0.2-0.2,0.3
					c1-0.5,1.9-0.8,2.9-1c1.1-0.1,2.1-0.1,3.3-0.1c0.6,0,0.4-0.9,0.2-1.2c-0.2-0.5-0.7-0.9-1.3-0.9c-1.2,0-2.2,0-3.4,0.1
					c-1.1,0.2-2.1,0.6-3.1,1.1c-0.1,0.1-0.2,0.2-0.2,0.3c-0.1,1.2,0,2.3-0.1,3.5c0.2-0.1,0.4-0.3,0.6-0.4c-0.6-0.1-1.1-0.3-1.5-0.5
					c-0.3-0.1-0.6-0.2-0.9-0.4c-0.2-0.1-0.3-0.2-0.4-0.2c-0.4-0.4-0.7-0.9-1.2-1.2c-0.6-0.4-1.3-0.6-1.9-0.4
					c-0.3,0.1-0.4,0.4-0.4,0.7c0,0.2,0.1,0.4,0.1,0.5c0,0-0.1,0.3,0,0.2c0-0.1,0,0,0,0s-0.3,0-0.1,0c-0.5,0-0.9-0.1-1.3,0
					c-1.4,0.5-1.3,2.2-1.3,3.4c0.3-0.1,0.5-0.2,0.8-0.3c-1.2-0.4-2.6-1.3-3.9-0.8c-0.9,0.3-1.5,0.9-2.1,1.4
					c-0.9,0.7-1.6,1.4-2.5,2.1c-1.3,1.2-2.6,2.3-4,3.4c-1.3,1-2.7,2-4,3.1c-1.3,1.2-2.4,2.4-3,4C41.6,100.4,43.3,101.9,43.6,100.8
					L43.6,100.8z"/>
			</g>
			<g>
				
					<linearGradient id="SVGID_2_" gradientUnits="userSpaceOnUse" x1="60.099" y1="130.8846" x2="257.4023" y2="-120.2285" gradientTransform="matrix(1 0 0 -1 0 241.2)">
					<stop  offset="4.897192e-05" style="stop-color:#DAB066"/>
					<stop  offset="0.2454" style="stop-color:#E6C996"/>
					<stop  offset="0.4745" style="stop-color:#DAB066"/>
					<stop  offset="0.7398" style="stop-color:#E6C996"/>
					<stop  offset="1" style="stop-color:#DAB066"/>
				</linearGradient>
				<path class="st1" d="M47,102.7c-0.1,0.2-0.1,0.2-0.2,0.3c-0.1,0.2,0,0-0.1,0.1c0.3-0.1-0.2,0-0.3,0c-0.3,0,0.2,0-0.2,0
					c-0.9,0.1-1.6,0.2-2.4,0.7c-0.4,0.3-0.1,0.8,0.1,1.1c1.8,1.7,4,3,6.3,4.1c1.1,0.6,1.8,1,2.7,1.5c1,0.7,1.8,1.3,2.8,1.9
					c2.3,1.4,4.8,2.2,7.4,3c1.2,0.4,2.3,0.8,3.4,1.3c1.1,0.5,2.2,1.1,3.4,1.4c2.4,1,5,1.7,7.5,2.4c0.6,0.1,1.7,0.4,1.9-0.4
					c0.2-0.7-0.9-1.3-1.3-1.4c-2.2-0.6-4.3-1.2-6.5-1.9c-1.2-0.4-1.7-0.7-2.9-1.2c-1.2-0.6-2.3-1.1-3.5-1.4
					c-1.3-0.4-2.4-0.8-3.7-1.2c-0.6-0.2-1.2-0.4-1.6-0.6c-0.5-0.2-0.8-0.3-1.3-0.6c-1.7-1-3.6-2.6-5.5-3.7c-2.2-1.2-4.3-2.2-6.1-3.9
					c0,0.4,0.1,0.7,0.1,1.1c-0.1,0.1,0.4-0.1,0.1-0.1c0.2,0,0.4-0.1,0.5-0.1c-0.4,0,0.7-0.1,0.5,0c0.2,0,0.3,0,0.5-0.1
					c0.9-0.1,1.5-0.5,1.7-1.3C50.8,102.5,47.4,101.4,47,102.7L47,102.7z"/>
			</g>
			
				<linearGradient id="SVGID_3_" gradientUnits="userSpaceOnUse" x1="109.8258" y1="169.9557" x2="307.1291" y2="-81.1574" gradientTransform="matrix(1 0 0 -1 0 241.2)">
				<stop  offset="4.897192e-05" style="stop-color:#DAB066"/>
				<stop  offset="0.2454" style="stop-color:#E6C996"/>
				<stop  offset="0.4745" style="stop-color:#DAB066"/>
				<stop  offset="0.7398" style="stop-color:#E6C996"/>
				<stop  offset="1" style="stop-color:#DAB066"/>
			</linearGradient>
			<path class="st2" d="M195.4,115.2c-10.3-1.7-21.8,3.7-21.8,3.7s-29.5,12.3-54.7,10.3c1.3-3.1,1.7-5,1.7-5s-26.6,3.5-38.4-2.4
				c2.4-7.9,5.9-19,5.9-19s72.6-2.5,100.9,4.9C170.9,98.7,87.8,97,87.8,97l-9-15c0,0,2.9-7,42.2-6.2c0-3.3-0.2-5-0.2-5
				c14.6,1.5,14.3,1.4,21.8,4.1c0-2,0-4.1,0-4.1s51.9,7.7,58.5,34.5L195.4,115.2z"/>
			
				<linearGradient id="SVGID_4_" gradientUnits="userSpaceOnUse" x1="112.8769" y1="172.3529" x2="310.1802" y2="-78.7602" gradientTransform="matrix(1 0 0 -1 0 241.2)">
				<stop  offset="4.897192e-05" style="stop-color:#DAB066"/>
				<stop  offset="0.2454" style="stop-color:#E6C996"/>
				<stop  offset="0.4745" style="stop-color:#DAB066"/>
				<stop  offset="0.7398" style="stop-color:#E6C996"/>
				<stop  offset="1" style="stop-color:#DAB066"/>
			</linearGradient>
			<path class="st3" d="M202.1,106.9c0,0-4.2,7.2-5.4,9c4.1,0.7,15.3,20.7-11,23.8c-5.6,0-35.6,0.2-35.6,0.2l-5.3,45.7l30.5-0.2
				l-1.3-8.8l-19.2-0.1l1-7.1c0,0,11.5,0,14.5,0c1.7-4.5,1.7-9.2,1.7-9.2l-15.5-0.1l1.3-11.2c0,0,15.8,0.1,26.9,0
				C209.9,147.3,219.7,124.7,202.1,106.9"/>
			
				<linearGradient id="SVGID_5_" gradientUnits="userSpaceOnUse" x1="75.7546" y1="143.1854" x2="273.0577" y2="-107.9278" gradientTransform="matrix(1 0 0 -1 0 241.2)">
				<stop  offset="4.897192e-05" style="stop-color:#DAB066"/>
				<stop  offset="0.2454" style="stop-color:#E6C996"/>
				<stop  offset="0.4745" style="stop-color:#DAB066"/>
				<stop  offset="0.7398" style="stop-color:#E6C996"/>
				<stop  offset="1" style="stop-color:#DAB066"/>
			</linearGradient>
			<path class="st4" d="M143.4,139.8l2.3,2.7c0,0-2,20.5-2.6,24.8c-0.3,4.4-6.5,6.5-6.5,6.5l4.6,11.7l-8.8-0.2l-9.3-21.3
				c0,0,5.4,0.1,9.4,0.1c3.4-0.2,2.9-14.6,2.9-14.6H123l-4.3,36.1l-9.2,0.1l4.9-44.2l1.6-1.4L143.4,139.8L143.4,139.8z"/>
			
				<linearGradient id="SVGID_6_" gradientUnits="userSpaceOnUse" x1="53.782" y1="125.9212" x2="251.0852" y2="-125.1919" gradientTransform="matrix(1 0 0 -1 0 241.2)">
				<stop  offset="4.897192e-05" style="stop-color:#DAB066"/>
				<stop  offset="0.2454" style="stop-color:#E6C996"/>
				<stop  offset="0.4745" style="stop-color:#DAB066"/>
				<stop  offset="0.7398" style="stop-color:#E6C996"/>
				<stop  offset="1" style="stop-color:#DAB066"/>
			</linearGradient>
			<polygon class="st5" points="91.3,164 108.2,164 105.9,184.8 103.9,185.6 77.2,185.3 74.2,182.5 79.3,142.6 82.3,139.9 
				105.5,139.9 111.1,148.8 88.3,148.9 84.9,176.5 96.3,176.4 96.9,171.6 			"/>
		</g>
		<g>
			
				<linearGradient id="SVGID_7_" gradientUnits="userSpaceOnUse" x1="13.7095" y1="94.4357" x2="211.0128" y2="-156.6775" gradientTransform="matrix(1 0 0 -1 0 241.2)">
				<stop  offset="4.897192e-05" style="stop-color:#DAB066"/>
				<stop  offset="0.2454" style="stop-color:#E6C996"/>
				<stop  offset="0.4745" style="stop-color:#DAB066"/>
				<stop  offset="0.7398" style="stop-color:#E6C996"/>
				<stop  offset="1" style="stop-color:#DAB066"/>
			</linearGradient>
			<path class="st6" d="M14.8,145.4c1.1-0.2,2,0,2.9,0.5c0.9,0.6,1.4,1.3,1.6,2.5c0.2,1.1,0,2-0.6,2.9s-1.4,1.3-2.5,1.6
				c-1.1,0.2-2,0.1-2.9-0.5c-0.9-0.6-1.3-1.3-1.6-2.5c-0.2-1.1-0.1-2,0.5-2.9C12.9,146.1,13.7,145.7,14.8,145.4z"/>
			
				<linearGradient id="SVGID_8_" gradientUnits="userSpaceOnUse" x1="25.9568" y1="104.0586" x2="223.2601" y2="-147.0545" gradientTransform="matrix(1 0 0 -1 0 241.2)">
				<stop  offset="4.897192e-05" style="stop-color:#DAB066"/>
				<stop  offset="0.2454" style="stop-color:#E6C996"/>
				<stop  offset="0.4745" style="stop-color:#DAB066"/>
				<stop  offset="0.7398" style="stop-color:#E6C996"/>
				<stop  offset="1" style="stop-color:#DAB066"/>
			</linearGradient>
			<path class="st7" d="M21.1,120.6c0.3,0.8,0.5,1.5,0.4,2.3c0,1.3-0.3,2.3-0.8,3.3c-0.5,1-1.1,1.8-1.8,2.4
				c-0.8,0.7-1.6,1.2-2.7,1.4c-1.1,0.3-2.1,0.5-3.3,0.5s-2.3-0.3-3.4-0.7c-1.1-0.4-1.9-1-2.6-1.6s-1.3-1.5-1.7-2.5
				c-0.4-1-0.6-2.1-0.6-3.4c0-0.9,0.2-1.6,0.5-2.4c0.3-0.8,0.7-1.4,1.2-2c0.5-0.6,1.1-1.1,1.8-1.4c0.7-0.4,1.5-0.6,2.4-0.7l-0.1,3.4
				c-0.9,0.2-1.6,0.6-2,1.2c-0.5,0.6-0.7,1.3-0.8,2.1c0,0.8,0.1,1.4,0.4,2c0.3,0.6,0.7,1.1,1.2,1.3c0.5,0.4,1.1,0.7,1.7,0.8
				c0.7,0.2,1.3,0.3,2,0.3c0.7,0,1.3,0,2-0.2c0.7-0.1,1.3-0.4,1.7-0.7c0.5-0.3,1-0.8,1.3-1.3c0.3-0.6,0.5-1.3,0.5-2
				c0-1.2-0.2-2.1-0.8-2.7c-0.6-0.7-1.4-1.1-2.5-1.2l-0.1,3.6l-2.6-0.1l0.2-6.7l8.7,0.3l-0.1,2.2l-1.8,0.3
				C20.2,119.2,20.8,119.8,21.1,120.6z"/>
			
				<linearGradient id="SVGID_9_" gradientUnits="userSpaceOnUse" x1="35.5095" y1="111.5642" x2="232.8126" y2="-139.5489" gradientTransform="matrix(1 0 0 -1 0 241.2)">
				<stop  offset="4.897192e-05" style="stop-color:#DAB066"/>
				<stop  offset="0.2454" style="stop-color:#E6C996"/>
				<stop  offset="0.4745" style="stop-color:#DAB066"/>
				<stop  offset="0.7398" style="stop-color:#E6C996"/>
				<stop  offset="1" style="stop-color:#DAB066"/>
			</linearGradient>
			<path class="st8" d="M7.7,100.5c0.1-0.7,0.4-1.3,0.7-1.8c0.4-0.5,0.8-1,1.3-1.3c0.5-0.3,1-0.6,1.5-0.7c0.6-0.1,1.2-0.1,1.7,0
				c1,0.2,1.7,0.6,2.3,1.1c0.6,0.5,1,1.3,1.2,2.2l0,0c0.2-0.4,0.5-0.7,0.8-1c0.3-0.3,0.7-0.4,1-0.5c0.3-0.1,0.8-0.2,1.2-0.2
				s0.9,0,1.3,0.1c0.3,0,0.6,0.1,0.9,0.1c0.4,0.1,0.7,0.1,1.1,0.1c0.4,0,0.7,0,1.1,0c0.3,0,0.6-0.1,0.9-0.2l-0.7,3.5
				c-0.6,0.1-1.2,0.1-1.8,0c-0.7-0.1-1.3-0.2-2-0.2c-0.9,0-1.5,0.1-1.9,0.4c-0.5,0.3-0.8,0.9-1,1.7l-0.7,3.5l6.2,1.3l-0.7,3.6L6,109
				L7.7,100.5z M14.6,103.2c0.2-0.8,0.1-1.4-0.2-1.9c-0.3-0.5-0.8-0.8-1.6-1c-0.8-0.2-1.3-0.1-1.8,0.3c-0.4,0.3-0.7,0.9-0.9,1.7
				l-0.8,3.8l4.4,0.9L14.6,103.2z"/>
			
				<linearGradient id="SVGID_10_" gradientUnits="userSpaceOnUse" x1="48.8394" y1="122.0377" x2="246.1426" y2="-129.0754" gradientTransform="matrix(1 0 0 -1 0 241.2)">
				<stop  offset="4.897192e-05" style="stop-color:#DAB066"/>
				<stop  offset="0.2454" style="stop-color:#E6C996"/>
				<stop  offset="0.4745" style="stop-color:#DAB066"/>
				<stop  offset="0.7398" style="stop-color:#E6C996"/>
				<stop  offset="1" style="stop-color:#DAB066"/>
			</linearGradient>
			<path class="st9" d="M13.2,82.2l17.2-0.1l-1.3,3.5l-3.8-0.1l-2.1,5.7l2.9,2.4l-1.3,3.4l-13-11.3L13.2,82.2z M22.5,85.3l-6.3-0.2
				l0,0l4.8,4L22.5,85.3z"/>
			
				<linearGradient id="SVGID_11_" gradientUnits="userSpaceOnUse" x1="59.6267" y1="130.5135" x2="256.9299" y2="-120.5996" gradientTransform="matrix(1 0 0 -1 0 241.2)">
				<stop  offset="4.897192e-05" style="stop-color:#DAB066"/>
				<stop  offset="0.2454" style="stop-color:#E6C996"/>
				<stop  offset="0.4745" style="stop-color:#DAB066"/>
				<stop  offset="0.7398" style="stop-color:#E6C996"/>
				<stop  offset="1" style="stop-color:#DAB066"/>
			</linearGradient>
			<path class="st10" d="M19.2,69l12.7-0.5l0,0l-9.3-5.3l1.6-2.9l14,8l-1.7,3.1l-12.7,0.5l0,0l9.3,5.3L31.4,80l-14-8L19.2,69z"/>
			
				<linearGradient id="SVGID_12_" gradientUnits="userSpaceOnUse" x1="73.6259" y1="141.5128" x2="270.9291" y2="-109.6003" gradientTransform="matrix(1 0 0 -1 0 241.2)">
				<stop  offset="4.897192e-05" style="stop-color:#DAB066"/>
				<stop  offset="0.2454" style="stop-color:#E6C996"/>
				<stop  offset="0.4745" style="stop-color:#DAB066"/>
				<stop  offset="0.7398" style="stop-color:#E6C996"/>
				<stop  offset="1" style="stop-color:#DAB066"/>
			</linearGradient>
			<path class="st11" d="M32.4,49.2c0.7-0.8,1.3-1.4,2.2-1.9c0.9-0.5,1.7-0.8,2.6-0.9c1-0.1,1.9,0,2.9,0.4c1,0.4,2,1,3.1,1.7
				c0.9,0.8,1.6,1.5,2.2,2.4c0.6,0.9,1,1.7,1.2,2.7c0.2,1,0.1,1.8-0.1,2.8c-0.3,1-0.8,1.9-1.5,2.9l-4.3,5.4L28.1,54.6L32.4,49.2z
				 M42.4,57.7c0.3-0.4,0.6-0.9,0.8-1.3c0.2-0.5,0.2-1,0.2-1.5c-0.1-0.6-0.3-1.1-0.6-1.6c-0.3-0.6-0.9-1.2-1.5-1.6
				c-0.7-0.5-1.3-0.9-1.8-1.2c-0.6-0.3-1.2-0.5-1.8-0.5c-0.6,0-1.2,0.1-1.7,0.4c-0.6,0.3-1.2,0.8-1.6,1.4l-1.6,1.9l7.9,6.4
				L42.4,57.7z"/>
			
				<linearGradient id="SVGID_13_" gradientUnits="userSpaceOnUse" x1="95.1165" y1="158.3983" x2="292.4198" y2="-92.7147" gradientTransform="matrix(1 0 0 -1 0 241.2)">
				<stop  offset="4.897192e-05" style="stop-color:#DAB066"/>
				<stop  offset="0.2454" style="stop-color:#E6C996"/>
				<stop  offset="0.4745" style="stop-color:#DAB066"/>
				<stop  offset="0.7398" style="stop-color:#E6C996"/>
				<stop  offset="1" style="stop-color:#DAB066"/>
			</linearGradient>
			<path class="st12" d="M54.6,28.1c0.6-0.5,1.2-0.8,1.7-0.9c0.6-0.1,1.2-0.2,1.7-0.1c0.6,0.1,1.2,0.3,1.6,0.6
				c0.5,0.3,1,0.7,1.3,1.2c0.6,0.8,0.9,1.5,1.1,2.3c0.1,0.8-0.1,1.6-0.6,2.4l0,0c0.4-0.2,0.8-0.3,1.2-0.2c0.4,0,0.8,0.1,1.1,0.3
				c0.4,0.2,0.7,0.4,1,0.7c0.3,0.3,0.6,0.6,0.9,0.9c0.2,0.2,0.4,0.4,0.6,0.7c0.2,0.3,0.5,0.5,0.7,0.8c0.3,0.3,0.5,0.5,0.8,0.7
				s0.5,0.4,0.8,0.4l-2.8,2.1c-0.5-0.3-1-0.7-1.3-1.3c-0.5-0.6-1-1.1-1.3-1.4c-0.6-0.6-1.2-1-1.7-1c-0.6-0.1-1.2,0.2-1.8,0.7
				L56.6,39l3.9,5l-2.8,2.1l-9.9-12.8L54.6,28.1z M58,34.7c0.7-0.5,1.1-1,1.2-1.5c0.1-0.6-0.1-1.2-0.6-1.7c-0.5-0.6-1-1-1.5-1
				c-0.6,0-1.2,0.2-1.7,0.7l-3.1,2.3L55,37L58,34.7z"/>
			
				<linearGradient id="SVGID_14_" gradientUnits="userSpaceOnUse" x1="105.4868" y1="166.5464" x2="302.7899" y2="-84.5667" gradientTransform="matrix(1 0 0 -1 0 241.2)">
				<stop  offset="4.897192e-05" style="stop-color:#DAB066"/>
				<stop  offset="0.2454" style="stop-color:#E6C996"/>
				<stop  offset="0.4745" style="stop-color:#DAB066"/>
				<stop  offset="0.7398" style="stop-color:#E6C996"/>
				<stop  offset="1" style="stop-color:#DAB066"/>
			</linearGradient>
			<path class="st13" d="M66.5,20.4l8.2,13.9l-3.1,1.8l-8.2-13.9L66.5,20.4z"/>
			
				<linearGradient id="SVGID_15_" gradientUnits="userSpaceOnUse" x1="116.6188" y1="175.293" x2="313.9219" y2="-75.8201" gradientTransform="matrix(1 0 0 -1 0 241.2)">
				<stop  offset="4.897192e-05" style="stop-color:#DAB066"/>
				<stop  offset="0.2454" style="stop-color:#E6C996"/>
				<stop  offset="0.4745" style="stop-color:#DAB066"/>
				<stop  offset="0.7398" style="stop-color:#E6C996"/>
				<stop  offset="1" style="stop-color:#DAB066"/>
			</linearGradient>
			<path class="st14" d="M81.5,30.6L70.1,18.1l3.3-1.4l7.9,8.9l0,0L80,13.8l3.4-1.5l1.7,16.9L81.5,30.6z"/>
			
				<linearGradient id="SVGID_16_" gradientUnits="userSpaceOnUse" x1="127.7487" y1="184.0379" x2="325.0518" y2="-67.0752" gradientTransform="matrix(1 0 0 -1 0 241.2)">
				<stop  offset="4.897192e-05" style="stop-color:#DAB066"/>
				<stop  offset="0.2454" style="stop-color:#E6C996"/>
				<stop  offset="0.4745" style="stop-color:#DAB066"/>
				<stop  offset="0.7398" style="stop-color:#E6C996"/>
				<stop  offset="1" style="stop-color:#DAB066"/>
			</linearGradient>
			<path class="st15" d="M99.5,7.3l0.8,2.9l-8.2,2.3l1,3.3l7.5-2.1l0.8,2.6l-7.5,2.1l1.1,3.8l8.4-2.4l0.8,2.9L92.3,26L88,10.5
				L99.5,7.3z"/>
			
				<linearGradient id="SVGID_17_" gradientUnits="userSpaceOnUse" x1="139.5367" y1="193.2999" x2="336.8399" y2="-57.8133" gradientTransform="matrix(1 0 0 -1 0 241.2)">
				<stop  offset="4.897192e-05" style="stop-color:#DAB066"/>
				<stop  offset="0.2454" style="stop-color:#E6C996"/>
				<stop  offset="0.4745" style="stop-color:#DAB066"/>
				<stop  offset="0.7398" style="stop-color:#E6C996"/>
				<stop  offset="1" style="stop-color:#DAB066"/>
			</linearGradient>
			<path class="st16" d="M114.1,5.1c0.7-0.1,1.3,0,2,0.1c0.6,0.2,1.2,0.4,1.6,0.8c0.5,0.4,0.9,0.8,1.2,1.3s0.5,1.1,0.5,1.6
				c0.1,1,0,1.7-0.3,2.5c-0.3,0.8-0.9,1.3-1.7,1.8l0,0c0.5,0.1,0.9,0.2,1.2,0.4c0.3,0.2,0.6,0.5,0.8,0.8c0.2,0.3,0.4,0.7,0.5,1.1
				c0.1,0.4,0.2,0.8,0.3,1.2c0,0.3,0.1,0.6,0.2,0.9c0.1,0.4,0.1,0.7,0.2,1.1c0.1,0.4,0.2,0.7,0.3,1c0.1,0.3,0.3,0.6,0.5,0.8
				l-3.5,0.4c-0.3-0.5-0.5-1.1-0.6-1.7c-0.1-0.7-0.3-1.3-0.5-2c-0.2-0.9-0.6-1.4-1-1.7c-0.5-0.4-1.1-0.5-1.9-0.4l-3.5,0.4l0.8,6.3
				l-3.5,0.4l-1.9-16L114.1,5.1z M113.8,12.5c0.8-0.1,1.3-0.4,1.7-0.8c0.4-0.4,0.5-1.1,0.4-1.8s-0.4-1.3-0.8-1.6
				c-0.5-0.3-1.1-0.4-1.8-0.3l-3.9,0.5L110,13L113.8,12.5z"/>
			
				<linearGradient id="SVGID_18_" gradientUnits="userSpaceOnUse" x1="156.0937" y1="206.3089" x2="353.3969" y2="-44.8042" gradientTransform="matrix(1 0 0 -1 0 241.2)">
				<stop  offset="4.897192e-05" style="stop-color:#DAB066"/>
				<stop  offset="0.2454" style="stop-color:#E6C996"/>
				<stop  offset="0.4745" style="stop-color:#DAB066"/>
				<stop  offset="0.7398" style="stop-color:#E6C996"/>
				<stop  offset="1" style="stop-color:#DAB066"/>
			</linearGradient>
			<path class="st17" d="M145.8,5.8l-0.3,3L137,7.9l-0.4,3.5l7.7,0.8l-0.2,2.7l-7.7-0.8l-0.4,4l8.7,0.9l-0.3,3l-12.1-1.3l1.6-16
				L145.8,5.8z"/>
			
				<linearGradient id="SVGID_19_" gradientUnits="userSpaceOnUse" x1="165.1895" y1="213.4557" x2="362.4927" y2="-37.6575" gradientTransform="matrix(1 0 0 -1 0 241.2)">
				<stop  offset="4.897192e-05" style="stop-color:#DAB066"/>
				<stop  offset="0.2454" style="stop-color:#E6C996"/>
				<stop  offset="0.4745" style="stop-color:#DAB066"/>
				<stop  offset="0.7398" style="stop-color:#E6C996"/>
				<stop  offset="1" style="stop-color:#DAB066"/>
			</linearGradient>
			<path class="st18" d="M155.2,7.8l3.7,12.1l0,0l2.8-10.4l3.2,0.9l-4.1,15.5l-3.4-1l-3.7-12l0,0l-2.8,10.4l-3.2-0.9l4.1-15.5
				L155.2,7.8z"/>
			
				<linearGradient id="SVGID_20_" gradientUnits="userSpaceOnUse" x1="173.4471" y1="219.9437" x2="370.7502" y2="-31.1694" gradientTransform="matrix(1 0 0 -1 0 241.2)">
				<stop  offset="4.897192e-05" style="stop-color:#DAB066"/>
				<stop  offset="0.2454" style="stop-color:#E6C996"/>
				<stop  offset="0.4745" style="stop-color:#DAB066"/>
				<stop  offset="0.7398" style="stop-color:#E6C996"/>
				<stop  offset="1" style="stop-color:#DAB066"/>
			</linearGradient>
			<path class="st19" d="M168.8,14.9l1.3-2.7l12,5.3l-1.3,2.7l-4.4-1.9l-5.3,12l-3.3-1.4l5.3-11.9L168.8,14.9z"/>
			
				<linearGradient id="SVGID_21_" gradientUnits="userSpaceOnUse" x1="177.8683" y1="223.4177" x2="375.1716" y2="-27.6955" gradientTransform="matrix(1 0 0 -1 0 241.2)">
				<stop  offset="4.897192e-05" style="stop-color:#DAB066"/>
				<stop  offset="0.2454" style="stop-color:#E6C996"/>
				<stop  offset="0.4745" style="stop-color:#DAB066"/>
				<stop  offset="0.7398" style="stop-color:#E6C996"/>
				<stop  offset="1" style="stop-color:#DAB066"/>
			</linearGradient>
			<path class="st20" d="M196.8,26.5l-1.5,2.5l-7.2-4.5l-1.8,2.9l6.6,4.1l-1.4,2.3l-6.6-4.1l-2.1,3.4l7.3,4.6l-1.5,2.5l-10.3-6.6
				l8.6-13.6L196.8,26.5z"/>
			
				<linearGradient id="SVGID_22_" gradientUnits="userSpaceOnUse" x1="181.0875" y1="225.9469" x2="378.3906" y2="-25.1662" gradientTransform="matrix(1 0 0 -1 0 241.2)">
				<stop  offset="4.897192e-05" style="stop-color:#DAB066"/>
				<stop  offset="0.2454" style="stop-color:#E6C996"/>
				<stop  offset="0.4745" style="stop-color:#DAB066"/>
				<stop  offset="0.7398" style="stop-color:#E6C996"/>
				<stop  offset="1" style="stop-color:#DAB066"/>
			</linearGradient>
			<path class="st21" d="M208.2,35.7c0.6,0.5,1,1,1.3,1.5s0.5,1.2,0.5,1.7c0,0.6,0,1.2-0.2,1.6c-0.2,0.6-0.5,1.1-0.9,1.5
				c-0.6,0.7-1.3,1.2-2,1.4c-0.8,0.3-1.5,0.2-2.5-0.1l0,0c0.3,0.4,0.4,0.8,0.5,1.2c0.1,0.4,0,0.8-0.1,1.2c-0.1,0.4-0.2,0.8-0.5,1.1
				c-0.2,0.4-0.4,0.7-0.7,1.1c-0.2,0.2-0.4,0.5-0.6,0.7c-0.2,0.3-0.4,0.6-0.7,0.9c-0.2,0.3-0.4,0.6-0.6,0.9
				c-0.2,0.3-0.2,0.6-0.3,0.9l-2.7-2.3c0.2-0.5,0.5-1.1,1-1.6c0.4-0.6,0.9-1.2,1.2-1.6c0.5-0.7,0.7-1.3,0.7-1.9s-0.4-1.2-1.1-1.7
				l-2.7-2.3l-4.1,4.7l-2.7-2.3l10.6-12.1L208.2,35.7z M202.5,40.4c0.6,0.6,1.2,0.8,1.7,0.8s1.1-0.3,1.6-1c0.5-0.6,0.8-1.2,0.7-1.6
				c-0.1-0.6-0.4-1.1-1.1-1.6l-2.9-2.5l-3,3.4L202.5,40.4z"/>
			
				<linearGradient id="SVGID_23_" gradientUnits="userSpaceOnUse" x1="182.8617" y1="227.341" x2="380.1649" y2="-23.7721" gradientTransform="matrix(1 0 0 -1 0 241.2)">
				<stop  offset="4.897192e-05" style="stop-color:#DAB066"/>
				<stop  offset="0.2454" style="stop-color:#E6C996"/>
				<stop  offset="0.4745" style="stop-color:#DAB066"/>
				<stop  offset="0.7398" style="stop-color:#E6C996"/>
				<stop  offset="1" style="stop-color:#DAB066"/>
			</linearGradient>
			<path class="st22" d="M220.8,49c0.7,0.8,1.1,1.5,1.3,2.2c0.2,0.8,0.3,1.4,0.2,2c-0.1,0.7-0.3,1.3-0.7,1.8
				c-0.4,0.6-0.8,1.1-1.3,1.4c-0.5,0.4-1.1,0.8-1.6,1c-0.6,0.3-1.3,0.4-1.9,0.3c-0.7,0-1.3-0.2-2-0.6c-0.7-0.4-1.3-1-2-1.7l-2.4-2.9
				l-4.4,3.7l-2.3-2.7L216,43.2L220.8,49z M214.5,53.2c0.3,0.3,0.6,0.6,0.9,0.9s0.6,0.4,0.9,0.6c0.3,0.1,0.7,0.1,1,0.1
				c0.4-0.1,0.8-0.3,1.2-0.6c0.4-0.3,0.7-0.7,0.8-1c0.1-0.3,0.2-0.7,0.1-1s-0.2-0.7-0.4-1c-0.2-0.3-0.4-0.7-0.7-1l-1.7-2.1l-3.7,3.1
				L214.5,53.2z"/>
			
				<linearGradient id="SVGID_24_" gradientUnits="userSpaceOnUse" x1="182.2429" y1="226.8548" x2="379.5461" y2="-24.2583" gradientTransform="matrix(1 0 0 -1 0 241.2)">
				<stop  offset="4.897192e-05" style="stop-color:#DAB066"/>
				<stop  offset="0.2454" style="stop-color:#E6C996"/>
				<stop  offset="0.4745" style="stop-color:#DAB066"/>
				<stop  offset="0.7398" style="stop-color:#E6C996"/>
				<stop  offset="1" style="stop-color:#DAB066"/>
			</linearGradient>
			<path class="st23" d="M232.2,65.4c0.4,0.6,0.6,1.3,0.7,1.8c0.1,0.6,0.1,1.2-0.1,1.7c-0.1,0.6-0.4,1.1-0.7,1.5
				c-0.4,0.5-0.8,0.9-1.3,1.2c-0.8,0.5-1.6,0.8-2.4,0.8c-0.8,0-1.5-0.3-2.3-0.9l0,0c0.1,0.5,0.2,0.9,0.1,1.3
				c-0.1,0.4-0.2,0.7-0.4,1.1c-0.2,0.3-0.5,0.7-0.8,0.9c-0.3,0.3-0.6,0.6-1,0.8c-0.2,0.1-0.5,0.3-0.8,0.5s-0.6,0.4-0.9,0.6
				c-0.3,0.2-0.6,0.5-0.8,0.7c-0.2,0.2-0.4,0.5-0.5,0.8l-1.8-3c0.3-0.4,0.8-0.9,1.3-1.3c0.6-0.4,1.2-0.8,1.6-1.3
				c0.7-0.6,1.1-1.1,1.2-1.6c0.1-0.6,0-1.2-0.5-1.9l-1.8-3l-5.4,3.3l-1.8-3l13.8-8.3L232.2,65.4z M225.4,68.1
				c0.4,0.7,0.9,1.2,1.4,1.3c0.5,0.2,1.2,0,1.8-0.4c0.7-0.4,1.1-0.9,1.2-1.3c0.1-0.5-0.1-1.2-0.5-1.8l-2-3.3l-3.9,2.3L225.4,68.1z"
				/>
			
				<linearGradient id="SVGID_25_" gradientUnits="userSpaceOnUse" x1="180.3152" y1="225.3402" x2="377.6183" y2="-25.7731" gradientTransform="matrix(1 0 0 -1 0 241.2)">
				<stop  offset="4.897192e-05" style="stop-color:#DAB066"/>
				<stop  offset="0.2454" style="stop-color:#E6C996"/>
				<stop  offset="0.4745" style="stop-color:#DAB066"/>
				<stop  offset="0.7398" style="stop-color:#E6C996"/>
				<stop  offset="1" style="stop-color:#DAB066"/>
			</linearGradient>
			<path class="st24" d="M238.6,78.1l-14.6,6.6l-1.4-3.3l14.6-6.6L238.6,78.1z"/>
			
				<linearGradient id="SVGID_26_" gradientUnits="userSpaceOnUse" x1="177.2771" y1="222.9531" x2="374.5803" y2="-28.1601" gradientTransform="matrix(1 0 0 -1 0 241.2)">
				<stop  offset="4.897192e-05" style="stop-color:#DAB066"/>
				<stop  offset="0.2454" style="stop-color:#E6C996"/>
				<stop  offset="0.4745" style="stop-color:#DAB066"/>
				<stop  offset="0.7398" style="stop-color:#E6C996"/>
				<stop  offset="1" style="stop-color:#DAB066"/>
			</linearGradient>
			<path class="st25" d="M230.2,90c-0.3,0.3-0.5,0.7-0.7,1.1s-0.2,0.8-0.2,1.3s0.1,0.9,0.3,1.3c0.1,0.3,0.2,0.6,0.4,1
				c0.2,0.3,0.4,0.6,0.6,0.9c0.2,0.3,0.5,0.5,0.9,0.6c0.3,0.1,0.7,0.1,1.1,0s0.7-0.4,0.9-0.7c0.2-0.4,0.3-0.8,0.3-1.3s0-1.1,0-1.6
				c0-0.6-0.1-1.2-0.1-1.8c0-0.6,0-1.3,0-1.8c0-0.6,0.2-1.2,0.4-1.7c0.2-0.6,0.5-1.1,0.9-1.4c0.4-0.4,1-0.8,1.6-1
				c0.8-0.3,1.5-0.3,2.2-0.2c0.7,0.2,1.3,0.5,1.8,0.9c0.6,0.4,1.1,1,1.4,1.5c0.4,0.7,0.7,1.3,1,1.9c0.3,0.8,0.4,1.6,0.5,2.4
				c0.1,0.8,0,1.5-0.3,2.2c-0.2,0.7-0.6,1.3-1.1,1.8c-0.5,0.6-1.3,1-2.1,1.3l-1.1-3.3c0.5-0.2,0.8-0.4,1.1-0.7
				c0.3-0.3,0.4-0.6,0.5-0.9c0.1-0.3,0.1-0.7,0.1-1.1s-0.1-0.8-0.3-1.2c-0.1-0.3-0.2-0.6-0.4-0.8c-0.1-0.3-0.3-0.5-0.6-0.7
				c-0.2-0.2-0.5-0.3-0.7-0.4c-0.3-0.1-0.6-0.1-0.9,0s-0.5,0.2-0.7,0.4c-0.2,0.2-0.3,0.5-0.3,0.9c-0.1,0.4-0.1,0.9,0,1.5
				c0,0.7,0.1,1.4,0.1,2.5c0,0.3,0.1,0.8,0.1,1.3c0,0.5-0.1,1.2-0.2,1.7c-0.2,0.6-0.5,1.2-0.9,1.7c-0.5,0.6-1.1,1-1.9,1.3
				c-0.7,0.2-1.3,0.3-2.1,0.2c-0.7-0.1-1.3-0.3-1.9-0.7s-1.2-1-1.6-1.6s-0.9-1.6-1.3-2.6c-0.3-0.9-0.4-1.7-0.5-2.6
				c0-0.9,0.1-1.6,0.3-2.4c0.3-0.8,0.7-1.4,1.3-2c0.6-0.6,1.3-1,2.3-1.3l1.1,3.3C231,89.4,230.6,89.7,230.2,90z"/>
			
				<linearGradient id="SVGID_27_" gradientUnits="userSpaceOnUse" x1="171.7279" y1="218.593" x2="369.031" y2="-32.5201" gradientTransform="matrix(1 0 0 -1 0 241.2)">
				<stop  offset="4.897192e-05" style="stop-color:#DAB066"/>
				<stop  offset="0.2454" style="stop-color:#E6C996"/>
				<stop  offset="0.4745" style="stop-color:#DAB066"/>
				<stop  offset="0.7398" style="stop-color:#E6C996"/>
				<stop  offset="1" style="stop-color:#DAB066"/>
			</linearGradient>
			<path class="st26" d="M247.9,112.9l-2.9,0.5l-1.3-8.4l-3.4,0.6l1.3,7.7l-2.7,0.5l-1.3-7.7l-3.9,0.7l1.3,8.6l-2.9,0.5l-1.9-12
				l15.9-2.6L247.9,112.9z"/>
			
				<linearGradient id="SVGID_28_" gradientUnits="userSpaceOnUse" x1="164.5471" y1="212.951" x2="361.8504" y2="-38.1621" gradientTransform="matrix(1 0 0 -1 0 241.2)">
				<stop  offset="4.897192e-05" style="stop-color:#DAB066"/>
				<stop  offset="0.2454" style="stop-color:#E6C996"/>
				<stop  offset="0.4745" style="stop-color:#DAB066"/>
				<stop  offset="0.7398" style="stop-color:#E6C996"/>
				<stop  offset="1" style="stop-color:#DAB066"/>
			</linearGradient>
			<path class="st27" d="M236.3,121.7c-0.4,0.2-0.7,0.5-0.9,0.8c-0.2,0.3-0.4,0.7-0.5,1.2c-0.1,0.5-0.2,0.9-0.2,1.3
				c0,0.3,0,0.7,0.1,1.1c0.1,0.4,0.2,0.7,0.3,1c0.2,0.3,0.4,0.6,0.7,0.8c0.3,0.2,0.6,0.3,1,0.3c0.5,0,0.8-0.2,1.1-0.5
				c0.3-0.3,0.5-0.7,0.7-1.1c0.2-0.5,0.3-1,0.5-1.5c0.1-0.6,0.3-1.2,0.4-1.7c0.1-0.6,0.3-1.2,0.5-1.7c0.2-0.6,0.5-1.1,0.9-1.5
				s0.8-0.9,1.3-1.2s1.2-0.5,1.8-0.5c0.9,0,1.5,0.2,2.1,0.5c0.6,0.4,1.2,0.8,1.5,1.3c0.4,0.6,0.8,1.3,1,1.9s0.3,1.4,0.3,2.1
				c0,0.9-0.1,1.6-0.3,2.4c-0.2,0.8-0.5,1.4-0.9,2.1c-0.4,0.6-1,1.1-1.5,1.4c-0.7,0.4-1.4,0.6-2.4,0.6l-0.1-3.5
				c0.5,0,0.9-0.2,1.2-0.3c0.3-0.2,0.6-0.4,0.8-0.7c0.2-0.3,0.3-0.6,0.4-1s0.1-0.8,0.1-1.3c0-0.3,0-0.6-0.1-0.9
				c-0.1-0.3-0.2-0.6-0.3-0.8c-0.2-0.2-0.4-0.4-0.6-0.6c-0.2-0.2-0.5-0.2-0.9-0.2c-0.3,0-0.6,0.1-0.8,0.2c-0.2,0.1-0.4,0.4-0.5,0.7
				c-0.2,0.4-0.3,0.9-0.5,1.4s-0.4,1.4-0.6,2.4c-0.1,0.3-0.2,0.7-0.3,1.3c-0.2,0.6-0.4,1.1-0.8,1.6c-0.4,0.6-0.8,1-1.3,1.3
				s-1.3,0.6-2.2,0.6c-0.8,0-1.4-0.1-2-0.4c-0.7-0.3-1.2-0.7-1.6-1.3c-0.5-0.6-0.9-1.3-1.1-2.1c-0.3-0.9-0.4-1.8-0.4-2.9
				c0-0.9,0.1-1.7,0.3-2.6c0.2-0.9,0.6-1.5,1-2.2c0.5-0.7,1.1-1.2,1.7-1.5c0.7-0.4,1.5-0.6,2.6-0.6l0.1,3.5
				C237.1,121.4,236.6,121.5,236.3,121.7z"/>
			
				<linearGradient id="SVGID_29_" gradientUnits="userSpaceOnUse" x1="151.2106" y1="202.4723" x2="348.5138" y2="-48.6408" gradientTransform="matrix(1 0 0 -1 0 241.2)">
				<stop  offset="4.897192e-05" style="stop-color:#DAB066"/>
				<stop  offset="0.2454" style="stop-color:#E6C996"/>
				<stop  offset="0.4745" style="stop-color:#DAB066"/>
				<stop  offset="0.7398" style="stop-color:#E6C996"/>
				<stop  offset="1" style="stop-color:#DAB066"/>
			</linearGradient>
			<path class="st28" d="M237.1,152.8c-1.1-0.2-1.9-0.8-2.5-1.6s-0.8-1.8-0.6-2.9c0.2-1.1,0.8-1.9,1.6-2.5c0.9-0.6,1.8-0.8,2.9-0.6
				s1.9,0.8,2.5,1.6s0.8,1.8,0.5,2.9c-0.2,1.1-0.8,1.9-1.6,2.5C239.2,152.8,238.3,153,237.1,152.8z"/>
		</g>
		<g>
			<g>
				
					<linearGradient id="SVGID_30_" gradientUnits="userSpaceOnUse" x1="6.9283" y1="89.1076" x2="204.2315" y2="-162.0055" gradientTransform="matrix(1 0 0 -1 0 241.2)">
					<stop  offset="4.897192e-05" style="stop-color:#DAB066"/>
					<stop  offset="0.2454" style="stop-color:#E6C996"/>
					<stop  offset="0.4745" style="stop-color:#DAB066"/>
					<stop  offset="0.7398" style="stop-color:#E6C996"/>
					<stop  offset="1" style="stop-color:#DAB066"/>
				</linearGradient>
				<path class="st29" d="M15,174.4l9.6-4.2l-1.6-3.8l2.3-1c0.2,0.5,0.5,1.1,0.8,1.4c0.3,0.5,0.7,0.8,1.1,1.1s0.9,0.5,1.3,0.6
					s1.1,0.1,1.6-0.1l1.1,2.4l-14.8,6.6L15,174.4z"/>
				
					<linearGradient id="SVGID_31_" gradientUnits="userSpaceOnUse" x1="4.9369" y1="87.5429" x2="202.24" y2="-163.5703" gradientTransform="matrix(1 0 0 -1 0 241.2)">
					<stop  offset="4.897192e-05" style="stop-color:#DAB066"/>
					<stop  offset="0.2454" style="stop-color:#E6C996"/>
					<stop  offset="0.4745" style="stop-color:#DAB066"/>
					<stop  offset="0.7398" style="stop-color:#E6C996"/>
					<stop  offset="1" style="stop-color:#DAB066"/>
				</linearGradient>
				<path class="st30" d="M30.1,178c1.1-0.3,2-0.4,2.9-0.2c0.9,0.1,1.5,0.4,2.1,0.9c0.6,0.5,1.2,1.1,1.5,1.7
					c0.4,0.7,0.7,1.4,0.9,2.2c0.1,0.8,0.1,1.5-0.2,2.3c-0.3,0.8-0.8,1.6-1.5,2.4c-0.8,0.9-1.8,1.6-3.2,2.5c-1.3,0.9-2.6,1.4-3.8,1.7
					c-1.1,0.3-2,0.4-2.9,0.2c-0.9-0.1-1.5-0.5-2.1-0.9c-0.6-0.5-1.2-1.1-1.5-1.7c-0.4-0.7-0.7-1.4-0.9-2.1c-0.1-0.8-0.1-1.5,0.2-2.3
					c0.3-0.8,0.8-1.6,1.5-2.4c0.8-0.9,1.8-1.6,3.2-2.5C27.8,178.9,29,178.3,30.1,178z M26.8,183.4c-0.6,0.4-1.1,0.8-1.4,1.3
					c-0.5,0.5-0.8,1-1,1.4c-0.2,0.5-0.1,1.1,0.2,1.6c0.4,0.6,0.8,0.9,1.3,1c0.6,0.1,1.2,0,1.7-0.1c0.6-0.2,1.2-0.4,1.7-0.8
					c0.6-0.3,1.1-0.6,1.4-0.9c0.2-0.1,0.5-0.3,0.9-0.6c0.3-0.2,0.7-0.5,1-0.7c0.3-0.3,0.7-0.6,1-0.9c0.3-0.3,0.6-0.6,0.7-1
					c0.2-0.4,0.3-0.7,0.3-1.1c0-0.4-0.1-0.8-0.3-1.2c-0.2-0.4-0.5-0.7-0.9-0.8c-0.3-0.2-0.7-0.2-1.1-0.2c-0.4,0-0.8,0.1-1.2,0.2
					s-0.8,0.3-1.2,0.5c-0.4,0.2-0.8,0.4-1.1,0.6c-0.4,0.2-0.7,0.4-0.9,0.5C27.7,182.8,27.3,183,26.8,183.4z"/>
				
					<linearGradient id="SVGID_32_" gradientUnits="userSpaceOnUse" x1="4.2751" y1="87.023" x2="201.5783" y2="-164.0902" gradientTransform="matrix(1 0 0 -1 0 241.2)">
					<stop  offset="4.897192e-05" style="stop-color:#DAB066"/>
					<stop  offset="0.2454" style="stop-color:#E6C996"/>
					<stop  offset="0.4745" style="stop-color:#DAB066"/>
					<stop  offset="0.7398" style="stop-color:#E6C996"/>
					<stop  offset="1" style="stop-color:#DAB066"/>
				</linearGradient>
				<path class="st31" d="M37.7,190.2c1.1-0.4,1.9-0.6,2.8-0.6s1.6,0.2,2.2,0.6c0.7,0.4,1.3,0.9,1.7,1.5c0.5,0.7,0.9,1.3,1.2,2
					c0.2,0.8,0.3,1.5,0.1,2.3c-0.2,0.9-0.6,1.7-1.3,2.6c-0.7,1-1.5,1.8-2.8,2.9c-1.3,1-2.4,1.7-3.5,2.1c-1.1,0.4-2,0.7-2.8,0.6
					c-0.8-0.1-1.6-0.2-2.3-0.6c-0.7-0.4-1.3-0.9-1.7-1.5s-0.9-1.3-1.1-2c-0.2-0.8-0.3-1.5-0.1-2.3c0.2-0.9,0.6-1.7,1.3-2.6
					c0.7-1,1.6-1.9,2.9-2.9C35.5,191.2,36.6,190.6,37.7,190.2z M35.1,195.9c-0.5,0.4-1,0.9-1.3,1.4c-0.4,0.5-0.6,1.1-0.8,1.5
					c-0.1,0.6,0,1.1,0.5,1.6c0.4,0.5,1,0.8,1.4,0.8c0.6,0,1.2-0.1,1.7-0.4c0.6-0.3,1.2-0.6,1.6-1c0.6-0.4,1-0.7,1.3-1
					c0.2-0.2,0.5-0.4,0.8-0.7c0.3-0.3,0.6-0.5,0.9-0.9c0.3-0.3,0.6-0.6,0.9-1c0.3-0.3,0.5-0.7,0.6-1.1s0.2-0.7,0.1-1.1
					c0-0.4-0.2-0.8-0.5-1.1c-0.3-0.4-0.6-0.6-1-0.7c-0.4-0.1-0.7-0.1-1.1-0.1c-0.4,0.1-0.8,0.2-1.2,0.3c-0.4,0.2-0.8,0.4-1.2,0.6
					c-0.4,0.2-0.7,0.5-1,0.7s-0.6,0.5-0.8,0.6C35.9,195.1,35.5,195.5,35.1,195.9z"/>
				
					<linearGradient id="SVGID_33_" gradientUnits="userSpaceOnUse" x1="5.8326" y1="88.2467" x2="203.1359" y2="-162.8665" gradientTransform="matrix(1 0 0 -1 0 241.2)">
					<stop  offset="4.897192e-05" style="stop-color:#DAB066"/>
					<stop  offset="0.2454" style="stop-color:#E6C996"/>
					<stop  offset="0.4745" style="stop-color:#DAB066"/>
					<stop  offset="0.7398" style="stop-color:#E6C996"/>
					<stop  offset="1" style="stop-color:#DAB066"/>
				</linearGradient>
				<path class="st32" d="M61.8,208.8l-18.5,6.6l-1.5-1.3l18.6-6.5L61.8,208.8z M48.2,200.9c0.5-0.3,1-0.5,1.5-0.6
					c0.5-0.1,1.1-0.1,1.5,0.1c0.5,0.2,1.1,0.5,1.5,0.9c0.6,0.5,0.9,1,1.2,1.4c0.3,0.5,0.3,1,0.2,1.5c-0.1,0.5-0.2,1.1-0.5,1.5
					s-0.7,1-1.1,1.4c-0.4,0.5-0.9,0.9-1.3,1.2c-0.5,0.3-1,0.5-1.4,0.6c-0.5,0.1-1,0-1.5-0.1c-0.5-0.2-1.1-0.5-1.5-1
					c-0.6-0.5-0.9-1-1.2-1.4c-0.2-0.5-0.3-1-0.3-1.4c0-0.5,0.2-1,0.5-1.4c0.3-0.5,0.6-1,1.1-1.4C47.3,201.6,47.7,201.2,48.2,200.9z
					 M48.1,204.2c-0.2,0.3-0.4,0.5-0.5,0.8s-0.2,0.6-0.1,0.8c0,0.3,0.2,0.5,0.5,0.8c0.3,0.2,0.6,0.4,0.8,0.4c0.3,0,0.6-0.1,0.8-0.2
					c0.3-0.1,0.5-0.3,0.7-0.5s0.4-0.4,0.6-0.6s0.3-0.4,0.6-0.7c0.2-0.3,0.4-0.6,0.5-0.9c0.1-0.3,0.2-0.6,0.2-0.9s-0.1-0.6-0.4-0.8
					c-0.3-0.3-0.6-0.4-0.9-0.4s-0.6,0.1-0.9,0.3c-0.3,0.2-0.6,0.4-0.8,0.6c-0.2,0.2-0.5,0.5-0.6,0.7
					C48.5,203.8,48.3,204.1,48.1,204.2z M52,214.6c0.5-0.3,1-0.5,1.4-0.6c0.5-0.1,1.1-0.1,1.5,0.1c0.5,0.2,1.1,0.5,1.5,0.9
					c0.6,0.5,1,1,1.2,1.4s0.3,1,0.2,1.5c0,0.5-0.2,1-0.5,1.5c-0.3,0.5-0.6,1-1.1,1.4c-0.5,0.5-0.9,0.9-1.3,1.2
					c-0.5,0.3-1,0.5-1.4,0.6c-0.5,0.1-1.1,0.1-1.5-0.1c-0.5-0.2-1.1-0.5-1.5-0.9c-0.6-0.5-0.9-1-1.2-1.4c-0.2-0.5-0.3-1-0.3-1.5
					c0-0.5,0.2-1,0.5-1.5c0.3-0.5,0.6-1,1.1-1.4C51.2,215.2,51.5,214.8,52,214.6z M51.9,217.9c-0.2,0.3-0.4,0.5-0.5,0.8
					c-0.1,0.3-0.2,0.6-0.2,0.9c0,0.3,0.2,0.6,0.5,0.8c0.3,0.2,0.6,0.4,0.9,0.3c0.3,0,0.6-0.1,0.9-0.2c0.3-0.2,0.5-0.3,0.8-0.6
					c0.2-0.2,0.4-0.4,0.6-0.6s0.3-0.4,0.5-0.7c0.2-0.3,0.4-0.5,0.5-0.8s0.2-0.6,0.2-0.9s-0.1-0.6-0.4-0.8c-0.3-0.3-0.6-0.4-0.9-0.4
					s-0.6,0.1-0.8,0.2c-0.3,0.1-0.5,0.3-0.8,0.6c-0.2,0.2-0.4,0.5-0.6,0.7C52.3,217.4,52.1,217.6,51.9,217.9z"/>
				
					<linearGradient id="SVGID_34_" gradientUnits="userSpaceOnUse" x1="13.3263" y1="94.1346" x2="210.6295" y2="-156.9786" gradientTransform="matrix(1 0 0 -1 0 241.2)">
					<stop  offset="4.897192e-05" style="stop-color:#DAB066"/>
					<stop  offset="0.2454" style="stop-color:#E6C996"/>
					<stop  offset="0.4745" style="stop-color:#DAB066"/>
					<stop  offset="0.7398" style="stop-color:#E6C996"/>
					<stop  offset="1" style="stop-color:#DAB066"/>
				</linearGradient>
				<path class="st33" d="M77.6,219.2l1.3,13l0,0l4.9-9.9l3.1,1.5l-7.2,14.8l-3.3-1.6l-1.3-12.9l0,0l-4.8,9.9l-3.1-1.5l7.2-14.8
					L77.6,219.2z"/>
				
					<linearGradient id="SVGID_35_" gradientUnits="userSpaceOnUse" x1="19.2285" y1="98.772" x2="216.5316" y2="-152.3411" gradientTransform="matrix(1 0 0 -1 0 241.2)">
					<stop  offset="4.897192e-05" style="stop-color:#DAB066"/>
					<stop  offset="0.2454" style="stop-color:#E6C996"/>
					<stop  offset="0.4745" style="stop-color:#DAB066"/>
					<stop  offset="0.7398" style="stop-color:#E6C996"/>
					<stop  offset="1" style="stop-color:#DAB066"/>
				</linearGradient>
				<path class="st34" d="M98.3,227.5l1.2,17.6l-3.6-1.1l-0.1-3.9l-5.9-1.7l-2.3,3.2l-3.5-1.1l10.7-14L98.3,227.5z M95.5,237.2
					l-0.3-6.4l0,0l-3.8,5.2L95.5,237.2z"/>
				
					<linearGradient id="SVGID_36_" gradientUnits="userSpaceOnUse" x1="29.2647" y1="106.6577" x2="226.5679" y2="-144.4554" gradientTransform="matrix(1 0 0 -1 0 241.2)">
					<stop  offset="4.897192e-05" style="stop-color:#DAB066"/>
					<stop  offset="0.2454" style="stop-color:#E6C996"/>
					<stop  offset="0.4745" style="stop-color:#DAB066"/>
					<stop  offset="0.7398" style="stop-color:#E6C996"/>
					<stop  offset="1" style="stop-color:#DAB066"/>
				</linearGradient>
				<path class="st35" d="M102.6,231.9l0.5-3l13.4,2.1l-0.5,3l-4.9-0.8l-2.1,13.3l-3.6-0.6l2.1-13.3L102.6,231.9z"/>
				
					<linearGradient id="SVGID_37_" gradientUnits="userSpaceOnUse" x1="34.8605" y1="111.0544" x2="232.1638" y2="-140.0588" gradientTransform="matrix(1 0 0 -1 0 241.2)">
					<stop  offset="4.897192e-05" style="stop-color:#DAB066"/>
					<stop  offset="0.2454" style="stop-color:#E6C996"/>
					<stop  offset="0.4745" style="stop-color:#DAB066"/>
					<stop  offset="0.7398" style="stop-color:#E6C996"/>
					<stop  offset="1" style="stop-color:#DAB066"/>
				</linearGradient>
				<path class="st36" d="M122.9,231.2l-0.9,16.5l-3.7-0.2l0.9-16.5L122.9,231.2z"/>
				
					<linearGradient id="SVGID_38_" gradientUnits="userSpaceOnUse" x1="44.3139" y1="118.4819" x2="241.617" y2="-132.6312" gradientTransform="matrix(1 0 0 -1 0 241.2)">
					<stop  offset="4.897192e-05" style="stop-color:#DAB066"/>
					<stop  offset="0.2454" style="stop-color:#E6C996"/>
					<stop  offset="0.4745" style="stop-color:#DAB066"/>
					<stop  offset="0.7398" style="stop-color:#E6C996"/>
					<stop  offset="1" style="stop-color:#DAB066"/>
				</linearGradient>
				<path class="st37" d="M131.5,247.7l-6.3-16.2l3.8-0.2l4.3,11.4l0,0l3.1-11.8l3.8-0.2l-4.5,16.8L131.5,247.7z"/>
				
					<linearGradient id="SVGID_39_" gradientUnits="userSpaceOnUse" x1="53.9884" y1="126.0834" x2="251.2915" y2="-125.0297" gradientTransform="matrix(1 0 0 -1 0 241.2)">
					<stop  offset="4.897192e-05" style="stop-color:#DAB066"/>
					<stop  offset="0.2454" style="stop-color:#E6C996"/>
					<stop  offset="0.4745" style="stop-color:#DAB066"/>
					<stop  offset="0.7398" style="stop-color:#E6C996"/>
					<stop  offset="1" style="stop-color:#DAB066"/>
				</linearGradient>
				<path class="st38" d="M154.4,227.9l0.6,3l-8.6,1.7l0.7,3.5l7.8-1.6l0.6,2.8l-7.8,1.6l0.8,4l8.7-1.8l0.6,3l-12.2,2.5l-3.4-16.2
					L154.4,227.9z"/>
				
					<linearGradient id="SVGID_40_" gradientUnits="userSpaceOnUse" x1="73.4729" y1="141.3927" x2="270.7761" y2="-109.7205" gradientTransform="matrix(1 0 0 -1 0 241.2)">
					<stop  offset="4.897192e-05" style="stop-color:#DAB066"/>
					<stop  offset="0.2454" style="stop-color:#E6C996"/>
					<stop  offset="0.4745" style="stop-color:#DAB066"/>
					<stop  offset="0.7398" style="stop-color:#E6C996"/>
					<stop  offset="1" style="stop-color:#DAB066"/>
				</linearGradient>
				<path class="st39" d="M166.6,229c-0.1-1.2,0-2.2,0.3-3.2s0.8-1.9,1.5-2.8c0.8-0.9,1.6-1.5,2.8-2c1.2-0.6,2.3-0.9,3.4-0.9
					s2.1,0.2,3.1,0.6s1.8,1.1,2.6,1.8c0.8,0.8,1.4,1.7,1.9,2.9c0.5,1.1,0.9,2.2,1,3.3s0,2.1-0.3,3.2c-0.3,1-0.8,1.9-1.5,2.7
					c-0.7,0.9-1.6,1.5-2.8,2c-1.2,0.6-2.3,0.9-3.4,0.9c-1.1,0-2.1-0.2-3.1-0.6c-1-0.4-1.8-1-2.6-1.7c-0.8-0.8-1.4-1.7-1.9-2.8
					C167.1,231.2,166.8,230.2,166.6,229z M172,232.6c0.4,0.5,0.9,1,1.4,1.3s1.2,0.5,1.8,0.6c0.7,0,1.3-0.1,2.1-0.5s1.3-0.8,1.6-1.3
					c0.4-0.5,0.6-1.1,0.7-1.7c0.1-0.6,0.1-1.3-0.1-1.9c-0.1-0.7-0.4-1.3-0.7-1.9c-0.3-0.7-0.7-1.3-1.2-1.8s-1-1-1.4-1.3
					c-0.6-0.3-1.2-0.5-1.8-0.6c-0.7,0-1.3,0.1-2.1,0.5c-0.8,0.4-1.3,0.8-1.6,1.3s-0.6,1.2-0.7,1.7c-0.1,0.7-0.1,1.3,0.1,1.9
					c0.1,0.7,0.4,1.3,0.7,2C171.1,231.4,171.5,232,172,232.6z"/>
				
					<linearGradient id="SVGID_41_" gradientUnits="userSpaceOnUse" x1="90.7122" y1="154.9378" x2="288.0154" y2="-96.1754" gradientTransform="matrix(1 0 0 -1 0 241.2)">
					<stop  offset="4.897192e-05" style="stop-color:#DAB066"/>
					<stop  offset="0.2454" style="stop-color:#E6C996"/>
					<stop  offset="0.4745" style="stop-color:#DAB066"/>
					<stop  offset="0.7398" style="stop-color:#E6C996"/>
					<stop  offset="1" style="stop-color:#DAB066"/>
				</linearGradient>
				<path class="st40" d="M200.8,222.6l-8.9-7.4l0,0l4.4,10.7l-3,2.2l-13.3-10.7l2.9-2.1l8.8,7.5l0,0l-4.3-10.8l2.7-2l9,7.5l0,0
					l-4.5-10.8l2.9-2.1l6.2,15.9L200.8,222.6z"/>
				
					<linearGradient id="SVGID_42_" gradientUnits="userSpaceOnUse" x1="107.291" y1="167.9641" x2="304.5942" y2="-83.1491" gradientTransform="matrix(1 0 0 -1 0 241.2)">
					<stop  offset="4.897192e-05" style="stop-color:#DAB066"/>
					<stop  offset="0.2454" style="stop-color:#E6C996"/>
					<stop  offset="0.4745" style="stop-color:#DAB066"/>
					<stop  offset="0.7398" style="stop-color:#E6C996"/>
					<stop  offset="1" style="stop-color:#DAB066"/>
				</linearGradient>
				<path class="st41" d="M201.4,200.3l12.8,2.5l0,0l-8.1-7.5l2.3-2.5l12,11.3l-2.5,2.7l-12.8-2.5l0,0l8.1,7.5l-2.3,2.5l-12-11.3
					L201.4,200.3z"/>
				
					<linearGradient id="SVGID_43_" gradientUnits="userSpaceOnUse" x1="121.4423" y1="179.0829" x2="318.7454" y2="-72.0303" gradientTransform="matrix(1 0 0 -1 0 241.2)">
					<stop  offset="4.897192e-05" style="stop-color:#DAB066"/>
					<stop  offset="0.2454" style="stop-color:#E6C996"/>
					<stop  offset="0.4745" style="stop-color:#DAB066"/>
					<stop  offset="0.7398" style="stop-color:#E6C996"/>
					<stop  offset="1" style="stop-color:#DAB066"/>
				</linearGradient>
				<path class="st42" d="M217.7,179.4l2.5,1.7l-4.8,7.2l2.9,1.9l4.4-6.6l2.3,1.5l-4.4,6.6l3.4,2.2l5-7.4l2.5,1.7l-7,10.4l-13.7-9.2
					L217.7,179.4z"/>
				
					<linearGradient id="SVGID_44_" gradientUnits="userSpaceOnUse" x1="133.4516" y1="188.5187" x2="330.7548" y2="-62.5944" gradientTransform="matrix(1 0 0 -1 0 241.2)">
					<stop  offset="4.897192e-05" style="stop-color:#DAB066"/>
					<stop  offset="0.2454" style="stop-color:#E6C996"/>
					<stop  offset="0.4745" style="stop-color:#DAB066"/>
					<stop  offset="0.7398" style="stop-color:#E6C996"/>
					<stop  offset="1" style="stop-color:#DAB066"/>
				</linearGradient>
				<path class="st43" d="M222.3,170c0.5-1,1.1-1.8,1.7-2.5c0.7-0.7,1.4-1.2,2.4-1.5c0.9-0.3,1.9-0.5,3-0.4c1.1,0.1,2.2,0.4,3.5,1
					c1.1,0.5,2,1.2,2.8,1.8c0.8,0.7,1.3,1.5,1.8,2.4c0.4,0.9,0.6,1.8,0.6,2.9c0,1.1-0.3,2.1-0.8,3.3l-3,6.5l-15-6.9L222.3,170z
					 M234.4,175.9c0.2-0.5,0.4-1,0.4-1.4c0.1-0.5,0-1.1-0.2-1.5s-0.6-1-1-1.4c-0.5-0.5-1.2-0.9-1.9-1.3c-0.8-0.4-1.4-0.6-2.1-0.8
					c-0.7-0.1-1.3-0.1-1.9,0s-1.2,0.4-1.6,0.9c-0.5,0.5-1,1.1-1.3,1.9l-1.1,2.3l9.4,4.3L234.4,175.9z"/>
			</g>
		</g>
		<g id="circle_3_">
			
				<linearGradient id="SVGID_45_" gradientUnits="userSpaceOnUse" x1="93.5611" y1="157.1763" x2="290.8643" y2="-93.9369" gradientTransform="matrix(1 0 0 -1 0 241.2)">
				<stop  offset="4.897192e-05" style="stop-color:#DAB066"/>
				<stop  offset="0.2454" style="stop-color:#E6C996"/>
				<stop  offset="0.4745" style="stop-color:#DAB066"/>
				<stop  offset="0.7398" style="stop-color:#E6C996"/>
				<stop  offset="1" style="stop-color:#DAB066"/>
			</linearGradient>
			<path class="st44" d="M126.7,225.6c-54.8,0-99.4-44.6-99.4-99.4s44.6-99.4,99.4-99.4s99.4,44.6,99.4,99.4
				C226.1,181,181.5,225.6,126.7,225.6z M126.7,32.1c-51.9,0-94.1,42.2-94.1,94.1s42.2,94.1,94.1,94.1s94.1-42.2,94.1-94.1
				C220.8,74.3,178.6,32.1,126.7,32.1z"/>
		</g>
	</g>
</g>
</svg>
