<?xml version="1.0" encoding="utf-8"?>
<!-- Generator: Adobe Illustrator 25.2.1, SVG Export Plug-In . SVG Version: 6.00 Build 0)  -->
<svg version="1.1" xmlns="http://www.w3.org/2000/svg" xmlns:xlink="http://www.w3.org/1999/xlink" x="0px" y="0px"
	 viewBox="0 0 340.9 367.1" style="enable-background:new 0 0 340.9 367.1;" xml:space="preserve">
<style type="text/css">
	.st0{fill:#301A3E;}
	.st1{fill:url(#SVGID_1_);}
	.st2{fill:url(#SVGID_2_);}
	.st3{fill:url(#SVGID_3_);}
	.st4{fill:url(#SVGID_4_);}
	.st5{fill:url(#SVGID_5_);}
	.st6{fill:url(#SVGID_6_);}
	.st7{fill:url(#SVGID_7_);}
	.st8{fill:url(#SVGID_8_);}
	.st9{fill:url(#SVGID_9_);}
	.st10{fill:url(#SVGID_10_);}
	.st11{fill:url(#SVGID_11_);}
	.st12{fill:url(#SVGID_12_);}
	.st13{fill:url(#SVGID_13_);}
	.st14{fill:url(#SVGID_14_);}
	.st15{fill:url(#SVGID_15_);}
	.st16{fill:url(#SVGID_16_);}
	.st17{fill:url(#SVGID_17_);}
	.st18{fill:url(#SVGID_18_);}
	.st19{fill:url(#SVGID_19_);}
	.st20{fill:url(#SVGID_20_);}
	.st21{fill:url(#SVGID_21_);}
	.st22{fill:url(#SVGID_22_);}
	.st23{fill:url(#SVGID_23_);}
	.st24{fill:url(#SVGID_24_);}
	.st25{fill:url(#SVGID_25_);}
	.st26{fill:url(#SVGID_26_);}
	.st27{fill:url(#SVGID_27_);}
	.st28{fill:url(#SVGID_28_);}
	.st29{fill:url(#SVGID_29_);}
	.st30{fill:url(#SVGID_30_);}
	.st31{fill:url(#SVGID_31_);}
	.st32{fill:url(#SVGID_32_);}
	.st33{fill:url(#SVGID_33_);}
	.st34{fill:url(#SVGID_34_);}
	.st35{fill:url(#SVGID_35_);}
	.st36{fill:url(#SVGID_36_);}
	.st37{fill:url(#SVGID_37_);}
	.st38{fill:url(#SVGID_38_);}
	.st39{fill:url(#SVGID_39_);}
	.st40{fill:url(#SVGID_40_);}
	.st41{fill:url(#SVGID_41_);}
	.st42{fill:url(#SVGID_42_);}
	.st43{fill:url(#SVGID_43_);}
	.st44{fill:url(#SVGID_44_);}
	.st45{fill:url(#SVGID_45_);}
</style>
<g id="Drop_Down">
	<path class="st0" d="M170.3,362.6L170.3,362.6C77.4,362.6,2,287.2,2,194.2V0h336.7v194.2C338.7,287.2,263.3,362.6,170.3,362.6z"/>
</g>
<g id="GRE_Logo">
	<g>
		<g>
			<g>
				<linearGradient id="SVGID_1_" gradientUnits="userSpaceOnUse" x1="108.3366" y1="166.6077" x2="313.1067" y2="427.2241">
					<stop  offset="4.897192e-05" style="stop-color:#DAB066"/>
					<stop  offset="0.2454" style="stop-color:#E6C996"/>
					<stop  offset="0.4745" style="stop-color:#DAB066"/>
					<stop  offset="0.7398" style="stop-color:#E6C996"/>
					<stop  offset="1" style="stop-color:#DAB066"/>
				</linearGradient>
				<path class="st1" d="M81.7,164.2c0.4-1.3,1.5-2.3,2.4-3.2c1.2-1.1,2.5-2.1,3.8-3.1c1.2-0.9,2.4-1.9,3.6-3
					c0.8-0.7,1.7-1.4,2.5-2.2c0.8-0.6,1.5-1.3,2.3-1.9c0.5-0.4,1.1-0.6,1.7-0.5c0.7,0.1,1.5,0.5,2.2,0.7c0.3,0.1,0.8,0.1,0.8-0.3
					c0-1-0.2-2.8,1.2-2.7c0.4,0,0.9,0.1,1.3-0.2c0.5-0.4,0.4-1.3,0.3-1.8c-0.1,0.2-0.3,0.4-0.4,0.7c0.1,0,0.5-0.1,0.5-0.1
					c0.1,0,0.2,0.2,0.4,0.4c0.4,0.5,0.9,0.9,1.4,1.2c1,0.5,2.2,0.9,3.3,1.1c0.3,0.1,0.6-0.1,0.6-0.4c0.1-1.2,0-2.4,0.1-3.6
					c-0.1,0.1-0.1,0.2-0.2,0.3c1-0.5,2-0.8,3-1c1.1-0.1,2.2-0.1,3.4-0.1c0.6,0,0.4-0.9,0.2-1.2c-0.2-0.5-0.7-0.9-1.3-0.9
					c-1.2,0-2.3,0-3.5,0.1c-1.1,0.2-2.2,0.6-3.2,1.1c-0.1,0.1-0.2,0.2-0.2,0.3c-0.1,1.2,0,2.4-0.1,3.6c0.2-0.1,0.4-0.3,0.6-0.4
					c-0.6-0.1-1.1-0.3-1.6-0.5c-0.3-0.1-0.6-0.2-0.9-0.4c-0.2-0.1-0.3-0.2-0.4-0.2c-0.4-0.4-0.7-0.9-1.2-1.2c-0.6-0.4-1.3-0.6-2-0.4
					c-0.3,0.1-0.4,0.4-0.4,0.7c0,0.2,0.1,0.4,0.1,0.5c0,0-0.1,0.3,0,0.2c0-0.1,0,0,0,0c0,0-0.3,0-0.1,0c-0.5,0-0.9-0.1-1.3,0
					c-1.5,0.5-1.3,2.3-1.4,3.5c0.3-0.1,0.5-0.2,0.8-0.3c-1.2-0.4-2.7-1.3-4-0.8c-0.9,0.3-1.6,0.9-2.2,1.5c-0.9,0.7-1.7,1.5-2.6,2.2
					c-1.4,1.2-2.7,2.4-4.2,3.5c-1.4,1-2.8,2.1-4.1,3.2c-1.3,1.2-2.5,2.5-3.1,4.2C79.6,163.8,81.3,165.4,81.7,164.2L81.7,164.2z"/>
			</g>
			<g>
				<linearGradient id="SVGID_2_" gradientUnits="userSpaceOnUse" x1="98.7486" y1="174.1411" x2="303.5187" y2="434.7575">
					<stop  offset="4.897192e-05" style="stop-color:#DAB066"/>
					<stop  offset="0.2454" style="stop-color:#E6C996"/>
					<stop  offset="0.4745" style="stop-color:#DAB066"/>
					<stop  offset="0.7398" style="stop-color:#E6C996"/>
					<stop  offset="1" style="stop-color:#DAB066"/>
				</linearGradient>
				<path class="st2" d="M85.2,166.2c-0.1,0.2-0.1,0.2-0.2,0.3c-0.1,0.2,0,0-0.1,0.1c0.3-0.1-0.2,0-0.3,0c-0.3,0,0.2,0-0.2,0
					c-0.9,0.1-1.7,0.2-2.5,0.7c-0.4,0.3-0.1,0.8,0.1,1.1c1.9,1.8,4.2,3.1,6.5,4.3c1.1,0.6,1.9,1,2.8,1.6c1,0.7,1.9,1.4,2.9,2
					c2.4,1.5,5,2.3,7.7,3.1c1.2,0.4,2.4,0.8,3.5,1.3c1.1,0.5,2.3,1.1,3.5,1.5c2.5,1,5.2,1.8,7.8,2.5c0.6,0.1,1.8,0.4,2-0.4
					c0.2-0.7-0.9-1.4-1.4-1.5c-2.3-0.6-4.5-1.2-6.7-2c-1.2-0.4-1.8-0.7-3-1.2c-1.2-0.6-2.4-1.1-3.6-1.5c-1.3-0.4-2.5-0.8-3.8-1.2
					c-0.6-0.2-1.2-0.4-1.7-0.6c-0.5-0.2-0.8-0.3-1.4-0.6c-1.8-1-3.7-2.7-5.7-3.8c-2.3-1.2-4.5-2.3-6.3-4c0,0.4,0.1,0.7,0.1,1.1
					c-0.1,0.1,0.4-0.1,0.1-0.1c0.2,0,0.4-0.1,0.5-0.1c-0.4,0,0.7-0.1,0.5,0c0.2,0,0.3,0,0.5-0.1c0.9-0.1,1.6-0.5,1.8-1.4
					C89.1,166,85.6,164.9,85.2,166.2L85.2,166.2z"/>
			</g>
			<linearGradient id="SVGID_3_" gradientUnits="userSpaceOnUse" x1="150.4892" y1="133.4878" x2="355.2593" y2="394.1042">
				<stop  offset="4.897192e-05" style="stop-color:#DAB066"/>
				<stop  offset="0.2454" style="stop-color:#E6C996"/>
				<stop  offset="0.4745" style="stop-color:#DAB066"/>
				<stop  offset="0.7398" style="stop-color:#E6C996"/>
				<stop  offset="1" style="stop-color:#DAB066"/>
			</linearGradient>
			<path class="st3" d="M239.2,179.2c-10.7-1.8-22.6,3.8-22.6,3.8s-30.6,12.8-56.8,10.7c1.4-3.2,1.8-5.2,1.8-5.2s-27.6,3.6-39.9-2.5
				c2.5-8.2,6.1-19.7,6.1-19.7s75.3-2.6,104.7,5.1c-18.7-9.3-105-11.1-105-11.1l-9.3-15.6c0,0,3-7.3,43.8-6.4c0-3.4-0.2-5.2-0.2-5.2
				c15.2,1.6,14.8,1.5,22.6,4.3c0-2.1,0-4.3,0-4.3s53.9,8,60.7,35.8L239.2,179.2z"/>
			<linearGradient id="SVGID_4_" gradientUnits="userSpaceOnUse" x1="153.5498" y1="131.0831" x2="358.3199" y2="391.6995">
				<stop  offset="4.897192e-05" style="stop-color:#DAB066"/>
				<stop  offset="0.2454" style="stop-color:#E6C996"/>
				<stop  offset="0.4745" style="stop-color:#DAB066"/>
				<stop  offset="0.7398" style="stop-color:#E6C996"/>
				<stop  offset="1" style="stop-color:#DAB066"/>
			</linearGradient>
			<path class="st4" d="M246.2,170.6c0,0-4.4,7.5-5.6,9.3c4.3,0.7,15.9,21.5-11.4,24.7c-5.8,0-36.9,0.2-36.9,0.2l-5.5,47.4l31.7-0.2
				l-1.4-9.1l-19.9-0.1l1-7.4c0,0,11.9,0,15.1,0c1.8-4.7,1.8-9.5,1.8-9.5l-16.1-0.1l1.4-11.6c0,0,16.4,0.1,27.9,0
				C254.2,212.5,264.4,189,246.2,170.6"/>
			<linearGradient id="SVGID_5_" gradientUnits="userSpaceOnUse" x1="115.0647" y1="161.3214" x2="319.8347" y2="421.9378">
				<stop  offset="4.897192e-05" style="stop-color:#DAB066"/>
				<stop  offset="0.2454" style="stop-color:#E6C996"/>
				<stop  offset="0.4745" style="stop-color:#DAB066"/>
				<stop  offset="0.7398" style="stop-color:#E6C996"/>
				<stop  offset="1" style="stop-color:#DAB066"/>
			</linearGradient>
			<path class="st5" d="M185.2,204.7l2.4,2.8c0,0-2.1,21.3-2.7,25.7c-0.3,4.6-6.7,6.7-6.7,6.7L183,252l-9.1-0.2l-9.7-22.1
				c0,0,5.6,0.1,9.8,0.1c3.5-0.2,3-15.2,3-15.2h-12.9l-4.5,37.5l-9.5,0.1l5.1-45.9l1.7-1.5H185.2z"/>
			<linearGradient id="SVGID_6_" gradientUnits="userSpaceOnUse" x1="92.2351" y1="179.2589" x2="297.0051" y2="439.8753">
				<stop  offset="4.897192e-05" style="stop-color:#DAB066"/>
				<stop  offset="0.2454" style="stop-color:#E6C996"/>
				<stop  offset="0.4745" style="stop-color:#DAB066"/>
				<stop  offset="0.7398" style="stop-color:#E6C996"/>
				<stop  offset="1" style="stop-color:#DAB066"/>
			</linearGradient>
			<polygon class="st6" points="131.2,229.8 148.7,229.8 146.3,251.4 144.2,252.2 116.5,251.9 113.4,249 118.7,207.6 121.8,204.8 
				145.9,204.8 151.7,214.1 128,214.2 124.5,242.8 136.3,242.7 137,237.7 			"/>
		</g>
		<g>
			<linearGradient id="SVGID_7_" gradientUnits="userSpaceOnUse" x1="50.6008" y1="211.9716" x2="255.3709" y2="472.588">
				<stop  offset="4.897192e-05" style="stop-color:#DAB066"/>
				<stop  offset="0.2454" style="stop-color:#E6C996"/>
				<stop  offset="0.4745" style="stop-color:#DAB066"/>
				<stop  offset="0.7398" style="stop-color:#E6C996"/>
				<stop  offset="1" style="stop-color:#DAB066"/>
			</linearGradient>
			<path class="st7" d="M51.8,210.5c1.1-0.2,2.1,0,3,0.5c0.9,0.6,1.5,1.4,1.7,2.6c0.2,1.1,0,2.1-0.6,3c-0.6,0.9-1.5,1.4-2.6,1.7
				c-1.1,0.2-2.1,0.1-3-0.5c-0.9-0.6-1.4-1.4-1.7-2.6c-0.2-1.1-0.1-2.1,0.5-3C49.8,211.3,50.6,210.8,51.8,210.5z"/>
			<linearGradient id="SVGID_8_" gradientUnits="userSpaceOnUse" x1="63.2962" y1="201.9966" x2="268.0663" y2="462.613">
				<stop  offset="4.897192e-05" style="stop-color:#DAB066"/>
				<stop  offset="0.2454" style="stop-color:#E6C996"/>
				<stop  offset="0.4745" style="stop-color:#DAB066"/>
				<stop  offset="0.7398" style="stop-color:#E6C996"/>
				<stop  offset="1" style="stop-color:#DAB066"/>
			</linearGradient>
			<path class="st8" d="M58.3,184.8c0.3,0.8,0.5,1.6,0.4,2.4c0,1.3-0.3,2.4-0.8,3.4c-0.5,1-1.1,1.9-1.9,2.5
				c-0.8,0.7-1.7,1.2-2.8,1.5s-2.2,0.5-3.4,0.5c-1.2,0-2.4-0.3-3.5-0.7c-1.1-0.4-2-1-2.7-1.7s-1.4-1.6-1.8-2.6
				c-0.4-1-0.6-2.2-0.6-3.5c0-0.9,0.2-1.7,0.5-2.5c0.3-0.8,0.7-1.5,1.2-2.1c0.5-0.6,1.1-1.1,1.9-1.5c0.7-0.4,1.6-0.6,2.5-0.7
				l-0.1,3.5c-0.9,0.2-1.7,0.6-2.1,1.2c-0.5,0.6-0.7,1.4-0.8,2.2c0,0.8,0.1,1.5,0.4,2.1c0.3,0.6,0.7,1.1,1.2,1.4
				c0.5,0.4,1.1,0.7,1.8,0.8c0.7,0.2,1.4,0.3,2.1,0.3c0.7,0,1.4,0,2.1-0.2c0.7-0.1,1.3-0.4,1.8-0.7c0.5-0.3,1-0.8,1.3-1.4
				c0.3-0.6,0.5-1.3,0.5-2.1c0-1.2-0.2-2.2-0.8-2.8c-0.6-0.7-1.5-1.1-2.6-1.2l-0.1,3.7l-2.7-0.1l0.2-7l9,0.3l-0.1,2.3l-1.9,0.3
				C57.4,183.3,58,184,58.3,184.8z"/>
			<linearGradient id="SVGID_9_" gradientUnits="userSpaceOnUse" x1="73.3052" y1="194.1324" x2="278.0752" y2="454.7488">
				<stop  offset="4.897192e-05" style="stop-color:#DAB066"/>
				<stop  offset="0.2454" style="stop-color:#E6C996"/>
				<stop  offset="0.4745" style="stop-color:#DAB066"/>
				<stop  offset="0.7398" style="stop-color:#E6C996"/>
				<stop  offset="1" style="stop-color:#DAB066"/>
			</linearGradient>
			<path class="st9" d="M44.4,163.9c0.1-0.7,0.4-1.4,0.7-1.9c0.4-0.5,0.8-1,1.3-1.3c0.5-0.3,1-0.6,1.6-0.7c0.6-0.1,1.2-0.1,1.8,0
				c1,0.2,1.8,0.6,2.4,1.1c0.6,0.5,1,1.3,1.2,2.3l0,0c0.2-0.4,0.5-0.7,0.8-1s0.7-0.4,1-0.5s0.8-0.2,1.2-0.2c0.4,0,0.9,0,1.3,0.1
				c0.3,0,0.6,0.1,0.9,0.1c0.4,0.1,0.7,0.1,1.1,0.1c0.4,0,0.7,0,1.1,0c0.3,0,0.6-0.1,0.9-0.2l-0.7,3.6c-0.6,0.1-1.2,0.1-1.9,0
				c-0.7-0.1-1.4-0.2-2.1-0.2c-0.9,0-1.6,0.1-2,0.4c-0.5,0.3-0.8,0.9-1,1.8l-0.7,3.6l6.4,1.3L59,176l-16.4-3.2L44.4,163.9z
				 M51.6,166.7c0.2-0.8,0.1-1.5-0.2-2c-0.3-0.5-0.8-0.8-1.7-1c-0.8-0.2-1.4-0.1-1.9,0.3c-0.4,0.3-0.7,0.9-0.9,1.8l-0.8,3.9l4.6,0.9
				L51.6,166.7z"/>
			<linearGradient id="SVGID_10_" gradientUnits="userSpaceOnUse" x1="87.1434" y1="183.2596" x2="291.9134" y2="443.876">
				<stop  offset="4.897192e-05" style="stop-color:#DAB066"/>
				<stop  offset="0.2454" style="stop-color:#E6C996"/>
				<stop  offset="0.4745" style="stop-color:#DAB066"/>
				<stop  offset="0.7398" style="stop-color:#E6C996"/>
				<stop  offset="1" style="stop-color:#DAB066"/>
			</linearGradient>
			<path class="st10" d="M50.1,144.9l17.8-0.1l-1.3,3.6l-3.9-0.1l-2.2,5.9l3,2.5l-1.3,3.5l-13.5-11.7L50.1,144.9z M59.8,148.2
				l-6.5-0.2l0,0l5,4.2L59.8,148.2z"/>
			<linearGradient id="SVGID_11_" gradientUnits="userSpaceOnUse" x1="98.3592" y1="174.4471" x2="303.1292" y2="435.0635">
				<stop  offset="4.897192e-05" style="stop-color:#DAB066"/>
				<stop  offset="0.2454" style="stop-color:#E6C996"/>
				<stop  offset="0.4745" style="stop-color:#DAB066"/>
				<stop  offset="0.7398" style="stop-color:#E6C996"/>
				<stop  offset="1" style="stop-color:#DAB066"/>
			</linearGradient>
			<path class="st11" d="M56.3,131.2l13.2-0.5l0,0l-9.7-5.5l1.7-3l14.5,8.3l-1.8,3.2l-13.2,0.5l0,0l9.7,5.5l-1.7,3l-14.5-8.3
				L56.3,131.2z"/>
			<linearGradient id="SVGID_12_" gradientUnits="userSpaceOnUse" x1="112.7767" y1="163.1191" x2="317.5468" y2="423.7355">
				<stop  offset="4.897192e-05" style="stop-color:#DAB066"/>
				<stop  offset="0.2454" style="stop-color:#E6C996"/>
				<stop  offset="0.4745" style="stop-color:#DAB066"/>
				<stop  offset="0.7398" style="stop-color:#E6C996"/>
				<stop  offset="1" style="stop-color:#DAB066"/>
			</linearGradient>
			<path class="st12" d="M70,110.7c0.7-0.8,1.4-1.5,2.3-2c0.9-0.5,1.8-0.8,2.7-0.9c1-0.1,2,0,3,0.4c1,0.4,2.1,1,3.2,1.8
				c0.9,0.8,1.7,1.6,2.3,2.5c0.6,0.9,1,1.8,1.2,2.8s0.1,1.9-0.1,2.9c-0.3,1-0.8,2-1.6,3l-4.5,5.6l-12.9-10.5L70,110.7z M80.4,119.5
				c0.3-0.4,0.6-0.9,0.8-1.4c0.2-0.5,0.2-1,0.2-1.6c-0.1-0.6-0.3-1.1-0.6-1.7c-0.3-0.6-0.9-1.2-1.6-1.7c-0.7-0.5-1.3-0.9-1.9-1.2
				c-0.6-0.3-1.2-0.5-1.9-0.5c-0.6,0-1.2,0.1-1.8,0.4c-0.6,0.3-1.2,0.8-1.7,1.5l-1.7,2l8.2,6.6L80.4,119.5z"/>
			<linearGradient id="SVGID_13_" gradientUnits="userSpaceOnUse" x1="135.0932" y1="145.5847" x2="339.8633" y2="406.201">
				<stop  offset="4.897192e-05" style="stop-color:#DAB066"/>
				<stop  offset="0.2454" style="stop-color:#E6C996"/>
				<stop  offset="0.4745" style="stop-color:#DAB066"/>
				<stop  offset="0.7398" style="stop-color:#E6C996"/>
				<stop  offset="1" style="stop-color:#DAB066"/>
			</linearGradient>
			<path class="st13" d="M93.1,88.8c0.6-0.5,1.2-0.8,1.8-0.9s1.2-0.2,1.8-0.1c0.6,0.1,1.2,0.3,1.7,0.6c0.5,0.3,1,0.7,1.4,1.2
				c0.6,0.8,0.9,1.6,1.1,2.4c0.1,0.8-0.1,1.7-0.6,2.5l0,0c0.4-0.2,0.8-0.3,1.2-0.2c0.4,0,0.8,0.1,1.1,0.3c0.4,0.2,0.7,0.4,1,0.7
				c0.3,0.3,0.6,0.6,0.9,0.9c0.2,0.2,0.4,0.4,0.6,0.7c0.2,0.3,0.5,0.5,0.7,0.8c0.3,0.3,0.5,0.5,0.8,0.7c0.3,0.2,0.5,0.4,0.8,0.4
				l-2.9,2.2c-0.5-0.3-1-0.7-1.4-1.3c-0.5-0.6-1-1.1-1.4-1.5c-0.6-0.6-1.2-1-1.8-1c-0.6-0.1-1.2,0.2-1.9,0.7l-2.9,2.2l4,5.2
				l-2.9,2.2L85.9,94.2L93.1,88.8z M96.6,95.6c0.7-0.5,1.1-1,1.2-1.6c0.1-0.6-0.1-1.2-0.6-1.8c-0.5-0.6-1-1-1.6-1
				c-0.6,0-1.2,0.2-1.8,0.7l-3.2,2.4l2.9,3.7L96.6,95.6z"/>
			<linearGradient id="SVGID_14_" gradientUnits="userSpaceOnUse" x1="145.9271" y1="137.0723" x2="350.6971" y2="397.6887">
				<stop  offset="4.897192e-05" style="stop-color:#DAB066"/>
				<stop  offset="0.2454" style="stop-color:#E6C996"/>
				<stop  offset="0.4745" style="stop-color:#DAB066"/>
				<stop  offset="0.7398" style="stop-color:#E6C996"/>
				<stop  offset="1" style="stop-color:#DAB066"/>
			</linearGradient>
			<path class="st14" d="M105.4,80.8l8.5,14.4l-3.2,1.9l-8.5-14.4L105.4,80.8z"/>
			<linearGradient id="SVGID_15_" gradientUnits="userSpaceOnUse" x1="157.4798" y1="127.9952" x2="362.2498" y2="388.6116">
				<stop  offset="4.897192e-05" style="stop-color:#DAB066"/>
				<stop  offset="0.2454" style="stop-color:#E6C996"/>
				<stop  offset="0.4745" style="stop-color:#DAB066"/>
				<stop  offset="0.7398" style="stop-color:#E6C996"/>
				<stop  offset="1" style="stop-color:#DAB066"/>
			</linearGradient>
			<path class="st15" d="M121,91.4l-11.8-13l3.4-1.5l8.2,9.2l0,0l-1.4-12.2l3.5-1.6l1.8,17.5L121,91.4z"/>
			<linearGradient id="SVGID_16_" gradientUnits="userSpaceOnUse" x1="168.9704" y1="118.9669" x2="373.7404" y2="379.5833">
				<stop  offset="4.897192e-05" style="stop-color:#DAB066"/>
				<stop  offset="0.2454" style="stop-color:#E6C996"/>
				<stop  offset="0.4745" style="stop-color:#DAB066"/>
				<stop  offset="0.7398" style="stop-color:#E6C996"/>
				<stop  offset="1" style="stop-color:#DAB066"/>
			</linearGradient>
			<path class="st16" d="M139.7,67.2l0.8,3l-8.5,2.4l1,3.4l7.8-2.2l0.8,2.7l-7.8,2.2l1.1,3.9l8.7-2.5l0.8,3l-12.2,3.5l-4.5-16.1
				L139.7,67.2z"/>
			<linearGradient id="SVGID_17_" gradientUnits="userSpaceOnUse" x1="181.0408" y1="109.483" x2="385.8109" y2="370.0994">
				<stop  offset="4.897192e-05" style="stop-color:#DAB066"/>
				<stop  offset="0.2454" style="stop-color:#E6C996"/>
				<stop  offset="0.4745" style="stop-color:#DAB066"/>
				<stop  offset="0.7398" style="stop-color:#E6C996"/>
				<stop  offset="1" style="stop-color:#DAB066"/>
			</linearGradient>
			<path class="st17" d="M154.8,64.9c0.7-0.1,1.4,0,2.1,0.1c0.6,0.2,1.2,0.4,1.7,0.8c0.5,0.4,0.9,0.8,1.2,1.3
				c0.3,0.5,0.5,1.1,0.5,1.7c0.1,1,0,1.8-0.3,2.6c-0.3,0.8-0.9,1.4-1.8,1.9l0,0c0.5,0.1,0.9,0.2,1.2,0.4c0.3,0.2,0.6,0.5,0.8,0.8
				c0.2,0.3,0.4,0.7,0.5,1.1c0.1,0.4,0.2,0.8,0.3,1.2c0,0.3,0.1,0.6,0.2,0.9c0.1,0.4,0.1,0.7,0.2,1.1c0.1,0.4,0.2,0.7,0.3,1
				c0.1,0.3,0.3,0.6,0.5,0.8l-3.6,0.4c-0.3-0.5-0.5-1.1-0.6-1.8c-0.1-0.7-0.3-1.4-0.5-2.1c-0.2-0.9-0.6-1.5-1-1.8
				c-0.5-0.4-1.1-0.5-2-0.4l-3.6,0.4l0.8,6.5l-3.6,0.4l-2-16.6L154.8,64.9z M154.5,72.6c0.8-0.1,1.4-0.4,1.8-0.8
				c0.4-0.4,0.5-1.1,0.4-1.9c-0.1-0.8-0.4-1.4-0.8-1.7c-0.5-0.3-1.1-0.4-1.9-0.3l-4,0.5l0.6,4.7L154.5,72.6z"/>
			<linearGradient id="SVGID_18_" gradientUnits="userSpaceOnUse" x1="198.3926" y1="95.8495" x2="403.1626" y2="356.4659">
				<stop  offset="4.897192e-05" style="stop-color:#DAB066"/>
				<stop  offset="0.2454" style="stop-color:#E6C996"/>
				<stop  offset="0.4745" style="stop-color:#DAB066"/>
				<stop  offset="0.7398" style="stop-color:#E6C996"/>
				<stop  offset="1" style="stop-color:#DAB066"/>
			</linearGradient>
			<path class="st18" d="M187.7,65.6l-0.3,3.1l-8.8-0.9l-0.4,3.6l8,0.8L186,75l-8-0.8l-0.4,4.1l9,0.9l-0.3,3.1l-12.6-1.3l1.7-16.6
				L187.7,65.6z"/>
			<linearGradient id="SVGID_19_" gradientUnits="userSpaceOnUse" x1="207.8678" y1="88.4047" x2="412.6378" y2="349.0211">
				<stop  offset="4.897192e-05" style="stop-color:#DAB066"/>
				<stop  offset="0.2454" style="stop-color:#E6C996"/>
				<stop  offset="0.4745" style="stop-color:#DAB066"/>
				<stop  offset="0.7398" style="stop-color:#E6C996"/>
				<stop  offset="1" style="stop-color:#DAB066"/>
			</linearGradient>
			<path class="st19" d="M197.5,67.7l3.8,12.6l0,0l2.9-10.8l3.3,0.9l-4.3,16.1l-3.5-1L195.9,73l0,0L193,83.8l-3.3-0.9l4.3-16.1
				L197.5,67.7z"/>
			<linearGradient id="SVGID_20_" gradientUnits="userSpaceOnUse" x1="216.4157" y1="81.6885" x2="421.1857" y2="342.3049">
				<stop  offset="4.897192e-05" style="stop-color:#DAB066"/>
				<stop  offset="0.2454" style="stop-color:#E6C996"/>
				<stop  offset="0.4745" style="stop-color:#DAB066"/>
				<stop  offset="0.7398" style="stop-color:#E6C996"/>
				<stop  offset="1" style="stop-color:#DAB066"/>
			</linearGradient>
			<path class="st20" d="M211.6,75.1l1.3-2.8l12.5,5.5l-1.3,2.8l-4.6-2L214,91.1l-3.4-1.5l5.5-12.4L211.6,75.1z"/>
			<linearGradient id="SVGID_21_" gradientUnits="userSpaceOnUse" x1="220.9476" y1="78.1276" x2="425.7177" y2="338.744">
				<stop  offset="4.897192e-05" style="stop-color:#DAB066"/>
				<stop  offset="0.2454" style="stop-color:#E6C996"/>
				<stop  offset="0.4745" style="stop-color:#DAB066"/>
				<stop  offset="0.7398" style="stop-color:#E6C996"/>
				<stop  offset="1" style="stop-color:#DAB066"/>
			</linearGradient>
			<path class="st21" d="M240.7,87.1l-1.6,2.6l-7.5-4.7l-1.9,3l6.8,4.3l-1.5,2.4l-6.8-4.3l-2.2,3.5l7.6,4.8l-1.6,2.6l-10.7-6.8
				l8.9-14.1L240.7,87.1z"/>
			<linearGradient id="SVGID_22_" gradientUnits="userSpaceOnUse" x1="224.3561" y1="75.4496" x2="429.1261" y2="336.066">
				<stop  offset="4.897192e-05" style="stop-color:#DAB066"/>
				<stop  offset="0.2454" style="stop-color:#E6C996"/>
				<stop  offset="0.4745" style="stop-color:#DAB066"/>
				<stop  offset="0.7398" style="stop-color:#E6C996"/>
				<stop  offset="1" style="stop-color:#DAB066"/>
			</linearGradient>
			<path class="st22" d="M252.5,96.7c0.6,0.5,1,1,1.3,1.6c0.3,0.6,0.5,1.2,0.5,1.8c0,0.6,0,1.2-0.2,1.7c-0.2,0.6-0.5,1.1-0.9,1.6
				c-0.6,0.7-1.4,1.2-2.1,1.5c-0.8,0.3-1.6,0.2-2.6-0.1l0,0c0.3,0.4,0.4,0.8,0.5,1.2c0.1,0.4,0,0.8-0.1,1.2
				c-0.1,0.4-0.2,0.8-0.5,1.1c-0.2,0.4-0.4,0.7-0.7,1.1c-0.2,0.2-0.4,0.5-0.6,0.7c-0.2,0.3-0.4,0.6-0.7,0.9
				c-0.2,0.3-0.4,0.6-0.6,0.9c-0.2,0.3-0.2,0.6-0.3,0.9l-2.8-2.4c0.2-0.5,0.5-1.1,1-1.7c0.4-0.6,0.9-1.2,1.2-1.7
				c0.5-0.7,0.7-1.4,0.7-2c0-0.6-0.4-1.2-1.1-1.8l-2.8-2.4l-4.3,4.9l-2.8-2.4l11-12.6L252.5,96.7z M246.6,101.6
				c0.6,0.6,1.2,0.8,1.8,0.8c0.6,0,1.1-0.3,1.7-1c0.5-0.6,0.8-1.2,0.7-1.7c-0.1-0.6-0.4-1.1-1.1-1.7l-3-2.6l-3.1,3.5L246.6,101.6z"
				/>
			<linearGradient id="SVGID_23_" gradientUnits="userSpaceOnUse" x1="226.1948" y1="74.0049" x2="430.9648" y2="334.6213">
				<stop  offset="4.897192e-05" style="stop-color:#DAB066"/>
				<stop  offset="0.2454" style="stop-color:#E6C996"/>
				<stop  offset="0.4745" style="stop-color:#DAB066"/>
				<stop  offset="0.7398" style="stop-color:#E6C996"/>
				<stop  offset="1" style="stop-color:#DAB066"/>
			</linearGradient>
			<path class="st23" d="M265.6,110.5c0.7,0.8,1.1,1.6,1.4,2.3c0.2,0.8,0.3,1.5,0.2,2.1c-0.1,0.7-0.3,1.3-0.7,1.9
				c-0.4,0.6-0.8,1.1-1.3,1.5c-0.5,0.4-1.1,0.8-1.7,1c-0.6,0.3-1.3,0.4-2,0.3c-0.7,0-1.4-0.2-2.1-0.6c-0.7-0.4-1.4-1-2.1-1.8l-2.5-3
				l-4.6,3.8l-2.4-2.8l12.8-10.7L265.6,110.5z M259,114.8c0.3,0.3,0.6,0.6,0.9,0.9c0.3,0.3,0.6,0.4,0.9,0.6c0.3,0.1,0.7,0.1,1,0.1
				c0.4-0.1,0.8-0.3,1.2-0.6c0.4-0.3,0.7-0.7,0.8-1c0.1-0.3,0.2-0.7,0.1-1c-0.1-0.3-0.2-0.7-0.4-1c-0.2-0.3-0.4-0.7-0.7-1l-1.8-2.2
				l-3.8,3.2L259,114.8z"/>
			<linearGradient id="SVGID_24_" gradientUnits="userSpaceOnUse" x1="225.5307" y1="74.5266" x2="430.3008" y2="335.143">
				<stop  offset="4.897192e-05" style="stop-color:#DAB066"/>
				<stop  offset="0.2454" style="stop-color:#E6C996"/>
				<stop  offset="0.4745" style="stop-color:#DAB066"/>
				<stop  offset="0.7398" style="stop-color:#E6C996"/>
				<stop  offset="1" style="stop-color:#DAB066"/>
			</linearGradient>
			<path class="st24" d="M277.4,127.5c0.4,0.6,0.6,1.3,0.7,1.9c0.1,0.6,0.1,1.2-0.1,1.8c-0.1,0.6-0.4,1.1-0.7,1.6
				c-0.4,0.5-0.8,0.9-1.4,1.2c-0.8,0.5-1.7,0.8-2.5,0.8c-0.8,0-1.6-0.3-2.4-0.9l0,0c0.1,0.5,0.2,0.9,0.1,1.3
				c-0.1,0.4-0.2,0.7-0.4,1.1c-0.2,0.3-0.5,0.7-0.8,0.9c-0.3,0.3-0.6,0.6-1,0.8c-0.2,0.1-0.5,0.3-0.8,0.5c-0.3,0.2-0.6,0.4-0.9,0.6
				c-0.3,0.2-0.6,0.5-0.8,0.7c-0.2,0.2-0.4,0.5-0.5,0.8l-1.9-3.1c0.3-0.4,0.8-0.9,1.4-1.3c0.6-0.4,1.2-0.8,1.7-1.3
				c0.7-0.6,1.1-1.1,1.2-1.7c0.1-0.6,0-1.2-0.5-2l-1.9-3.1l-5.6,3.4l-1.9-3.1l14.3-8.6L277.4,127.5z M270.3,130.3
				c0.4,0.7,0.9,1.2,1.5,1.3c0.5,0.2,1.2,0,1.9-0.4c0.7-0.4,1.1-0.9,1.2-1.4c0.1-0.5-0.1-1.2-0.5-1.9l-2.1-3.4l-4,2.4L270.3,130.3z"
				/>
			<linearGradient id="SVGID_25_" gradientUnits="userSpaceOnUse" x1="223.529" y1="76.0994" x2="428.299" y2="336.7159">
				<stop  offset="4.897192e-05" style="stop-color:#DAB066"/>
				<stop  offset="0.2454" style="stop-color:#E6C996"/>
				<stop  offset="0.4745" style="stop-color:#DAB066"/>
				<stop  offset="0.7398" style="stop-color:#E6C996"/>
				<stop  offset="1" style="stop-color:#DAB066"/>
			</linearGradient>
			<path class="st25" d="M284,140.7l-15.2,6.8l-1.5-3.4l15.2-6.8L284,140.7z"/>
			<linearGradient id="SVGID_26_" gradientUnits="userSpaceOnUse" x1="220.4236" y1="78.5394" x2="425.1936" y2="339.1558">
				<stop  offset="4.897192e-05" style="stop-color:#DAB066"/>
				<stop  offset="0.2454" style="stop-color:#E6C996"/>
				<stop  offset="0.4745" style="stop-color:#DAB066"/>
				<stop  offset="0.7398" style="stop-color:#E6C996"/>
				<stop  offset="1" style="stop-color:#DAB066"/>
			</linearGradient>
			<path class="st26" d="M275.3,153c-0.3,0.3-0.5,0.7-0.7,1.1s-0.2,0.8-0.2,1.3c0,0.5,0.1,0.9,0.3,1.4c0.1,0.3,0.2,0.6,0.4,1
				c0.2,0.3,0.4,0.6,0.6,0.9c0.2,0.3,0.5,0.5,0.9,0.6c0.3,0.1,0.7,0.1,1.1,0c0.4-0.1,0.7-0.4,0.9-0.7c0.2-0.4,0.3-0.8,0.3-1.3
				c0-0.5,0-1.1,0-1.7c0-0.6-0.1-1.2-0.1-1.9c0-0.6,0-1.3,0-1.9c0-0.6,0.2-1.2,0.4-1.8c0.2-0.6,0.5-1.1,0.9-1.5c0.4-0.4,1-0.8,1.7-1
				c0.8-0.3,1.6-0.3,2.3-0.2c0.7,0.2,1.4,0.5,1.9,0.9c0.6,0.4,1.1,1,1.5,1.6c0.4,0.7,0.7,1.3,1,2c0.3,0.8,0.4,1.7,0.5,2.5
				c0.1,0.8,0,1.6-0.3,2.3c-0.2,0.7-0.6,1.4-1.1,1.9c-0.5,0.6-1.3,1-2.2,1.3l-1.1-3.4c0.5-0.2,0.8-0.4,1.1-0.7
				c0.3-0.3,0.4-0.6,0.5-0.9c0.1-0.3,0.1-0.7,0.1-1.1s-0.1-0.8-0.3-1.2c-0.1-0.3-0.2-0.6-0.4-0.8c-0.1-0.3-0.3-0.5-0.6-0.7
				c-0.2-0.2-0.5-0.3-0.7-0.4c-0.3-0.1-0.6-0.1-0.9,0c-0.3,0.1-0.5,0.2-0.7,0.4c-0.2,0.2-0.3,0.5-0.3,0.9c-0.1,0.4-0.1,0.9,0,1.6
				c0,0.7,0.1,1.5,0.1,2.6c0,0.3,0.1,0.8,0.1,1.3s-0.1,1.2-0.2,1.8c-0.2,0.6-0.5,1.2-0.9,1.8c-0.5,0.6-1.1,1-2,1.3
				c-0.7,0.2-1.4,0.3-2.2,0.2c-0.7-0.1-1.4-0.3-2-0.7c-0.6-0.4-1.2-1-1.7-1.7c-0.5-0.7-0.9-1.7-1.3-2.7c-0.3-0.9-0.4-1.8-0.5-2.7
				c0-0.9,0.1-1.7,0.3-2.5c0.3-0.8,0.7-1.5,1.3-2.1c0.6-0.6,1.4-1,2.4-1.3l1.1,3.4C276.1,152.4,275.7,152.7,275.3,153z"/>
			<linearGradient id="SVGID_27_" gradientUnits="userSpaceOnUse" x1="214.5857" y1="83.1263" x2="419.3557" y2="343.7427">
				<stop  offset="4.897192e-05" style="stop-color:#DAB066"/>
				<stop  offset="0.2454" style="stop-color:#E6C996"/>
				<stop  offset="0.4745" style="stop-color:#DAB066"/>
				<stop  offset="0.7398" style="stop-color:#E6C996"/>
				<stop  offset="1" style="stop-color:#DAB066"/>
			</linearGradient>
			<path class="st27" d="M293.7,176.8l-3,0.5l-1.4-8.7l-3.5,0.6l1.3,8l-2.8,0.5l-1.3-8l-4,0.7l1.4,8.9l-3,0.5l-2-12.5l16.5-2.7
				L293.7,176.8z"/>
			<linearGradient id="SVGID_28_" gradientUnits="userSpaceOnUse" x1="207.1352" y1="88.9802" x2="411.9053" y2="349.5966">
				<stop  offset="4.897192e-05" style="stop-color:#DAB066"/>
				<stop  offset="0.2454" style="stop-color:#E6C996"/>
				<stop  offset="0.4745" style="stop-color:#DAB066"/>
				<stop  offset="0.7398" style="stop-color:#E6C996"/>
				<stop  offset="1" style="stop-color:#DAB066"/>
			</linearGradient>
			<path class="st28" d="M281.6,185.9c-0.4,0.2-0.7,0.5-0.9,0.8c-0.2,0.3-0.4,0.7-0.5,1.2c-0.1,0.5-0.2,0.9-0.2,1.4
				c0,0.3,0,0.7,0.1,1.1c0.1,0.4,0.2,0.7,0.3,1c0.2,0.3,0.4,0.6,0.7,0.8c0.3,0.2,0.6,0.3,1,0.3c0.5,0,0.8-0.2,1.1-0.5
				c0.3-0.3,0.5-0.7,0.7-1.1c0.2-0.5,0.3-1,0.5-1.6c0.1-0.6,0.3-1.2,0.4-1.8c0.1-0.6,0.3-1.2,0.5-1.8c0.2-0.6,0.5-1.1,0.9-1.6
				c0.4-0.5,0.8-0.9,1.3-1.2c0.5-0.3,1.2-0.5,1.9-0.5c0.9,0,1.6,0.2,2.2,0.5c0.6,0.4,1.2,0.8,1.6,1.4c0.4,0.6,0.8,1.3,1,2
				c0.2,0.7,0.3,1.5,0.3,2.2c0,0.9-0.1,1.7-0.3,2.5c-0.2,0.8-0.5,1.5-0.9,2.2c-0.4,0.6-1,1.1-1.6,1.5c-0.7,0.4-1.5,0.6-2.5,0.6
				l-0.1-3.6c0.5,0,0.9-0.2,1.2-0.3c0.3-0.2,0.6-0.4,0.8-0.7c0.2-0.3,0.3-0.6,0.4-1c0.1-0.4,0.1-0.8,0.1-1.3c0-0.3,0-0.6-0.1-0.9
				c-0.1-0.3-0.2-0.6-0.3-0.8c-0.2-0.2-0.4-0.4-0.6-0.6c-0.2-0.2-0.5-0.2-0.9-0.2c-0.3,0-0.6,0.1-0.8,0.2c-0.2,0.1-0.4,0.4-0.5,0.7
				c-0.2,0.4-0.3,0.9-0.5,1.5c-0.2,0.6-0.4,1.5-0.6,2.5c-0.1,0.3-0.2,0.7-0.3,1.3c-0.2,0.6-0.4,1.1-0.8,1.7c-0.4,0.6-0.8,1-1.4,1.4
				c-0.6,0.4-1.4,0.6-2.3,0.6c-0.8,0-1.5-0.1-2.1-0.4c-0.7-0.3-1.2-0.7-1.7-1.3c-0.5-0.6-0.9-1.3-1.1-2.2c-0.3-0.9-0.4-1.9-0.4-3
				c0-0.9,0.1-1.8,0.3-2.7c0.2-0.9,0.6-1.6,1-2.3c0.5-0.7,1.1-1.2,1.8-1.6c0.7-0.4,1.6-0.6,2.7-0.6l0.1,3.6
				C282.5,185.6,282,185.7,281.6,185.9z"/>
			<linearGradient id="SVGID_29_" gradientUnits="userSpaceOnUse" x1="193.3913" y1="99.779" x2="398.1613" y2="360.3954">
				<stop  offset="4.897192e-05" style="stop-color:#DAB066"/>
				<stop  offset="0.2454" style="stop-color:#E6C996"/>
				<stop  offset="0.4745" style="stop-color:#DAB066"/>
				<stop  offset="0.7398" style="stop-color:#E6C996"/>
				<stop  offset="1" style="stop-color:#DAB066"/>
			</linearGradient>
			<path class="st29" d="M282.5,218.2c-1.1-0.2-2-0.8-2.6-1.7c-0.6-0.9-0.8-1.9-0.6-3c0.2-1.1,0.8-2,1.7-2.6s1.9-0.8,3-0.6
				c1.1,0.2,2,0.8,2.6,1.7c0.6,0.9,0.8,1.9,0.5,3c-0.2,1.1-0.8,2-1.7,2.6C284.7,218.2,283.7,218.4,282.5,218.2z"/>
		</g>
		<g>
			<g>
				<linearGradient id="SVGID_30_" gradientUnits="userSpaceOnUse" x1="43.5226" y1="217.533" x2="248.2926" y2="478.1494">
					<stop  offset="4.897192e-05" style="stop-color:#DAB066"/>
					<stop  offset="0.2454" style="stop-color:#E6C996"/>
					<stop  offset="0.4745" style="stop-color:#DAB066"/>
					<stop  offset="0.7398" style="stop-color:#E6C996"/>
					<stop  offset="1" style="stop-color:#DAB066"/>
				</linearGradient>
				<path class="st30" d="M52,240.6l10-4.4l-1.7-3.9l2.4-1c0.2,0.5,0.5,1.1,0.8,1.5c0.3,0.5,0.7,0.8,1.1,1.1
					c0.4,0.3,0.9,0.5,1.4,0.6c0.5,0.1,1.1,0.1,1.7-0.1l1.1,2.5l-15.4,6.8L52,240.6z"/>
				<linearGradient id="SVGID_31_" gradientUnits="userSpaceOnUse" x1="41.5676" y1="219.0691" x2="246.3376" y2="479.6855">
					<stop  offset="4.897192e-05" style="stop-color:#DAB066"/>
					<stop  offset="0.2454" style="stop-color:#E6C996"/>
					<stop  offset="0.4745" style="stop-color:#DAB066"/>
					<stop  offset="0.7398" style="stop-color:#E6C996"/>
					<stop  offset="1" style="stop-color:#DAB066"/>
				</linearGradient>
				<path class="st31" d="M67.6,244.4c1.1-0.3,2.1-0.4,3-0.2c0.9,0.1,1.6,0.4,2.2,0.9c0.6,0.5,1.2,1.1,1.6,1.8
					c0.4,0.7,0.7,1.5,0.9,2.3c0.1,0.8,0.1,1.6-0.2,2.4c-0.3,0.8-0.8,1.7-1.6,2.5c-0.8,0.9-1.9,1.7-3.3,2.6c-1.4,0.9-2.7,1.5-3.9,1.8
					c-1.1,0.3-2.1,0.4-3,0.2c-0.9-0.1-1.6-0.5-2.2-0.9c-0.6-0.5-1.2-1.1-1.6-1.8c-0.4-0.7-0.7-1.5-0.9-2.2c-0.1-0.8-0.1-1.6,0.2-2.4
					c0.3-0.8,0.8-1.7,1.6-2.5c0.8-0.9,1.9-1.7,3.3-2.6C65.3,245.3,66.5,244.7,67.6,244.4z M64.2,250c-0.6,0.4-1.1,0.8-1.5,1.3
					c-0.5,0.5-0.8,1-1,1.5c-0.2,0.5-0.1,1.1,0.2,1.7c0.4,0.6,0.8,0.9,1.4,1s1.2,0,1.8-0.1c0.6-0.2,1.2-0.4,1.8-0.8
					c0.6-0.3,1.1-0.6,1.5-0.9c0.2-0.1,0.5-0.3,0.9-0.6c0.3-0.2,0.7-0.5,1-0.7c0.3-0.3,0.7-0.6,1-0.9c0.3-0.3,0.6-0.6,0.7-1
					c0.2-0.4,0.3-0.7,0.3-1.1c0-0.4-0.1-0.8-0.3-1.2c-0.2-0.4-0.5-0.7-0.9-0.8c-0.3-0.2-0.7-0.2-1.1-0.2c-0.4,0-0.8,0.1-1.2,0.2
					s-0.8,0.3-1.2,0.5c-0.4,0.2-0.8,0.4-1.1,0.6c-0.4,0.2-0.7,0.4-0.9,0.5C65.2,249.3,64.7,249.6,64.2,250z"/>
				<linearGradient id="SVGID_32_" gradientUnits="userSpaceOnUse" x1="40.8764" y1="219.6122" x2="245.6464" y2="480.2286">
					<stop  offset="4.897192e-05" style="stop-color:#DAB066"/>
					<stop  offset="0.2454" style="stop-color:#E6C996"/>
					<stop  offset="0.4745" style="stop-color:#DAB066"/>
					<stop  offset="0.7398" style="stop-color:#E6C996"/>
					<stop  offset="1" style="stop-color:#DAB066"/>
				</linearGradient>
				<path class="st32" d="M75.5,257c1.1-0.4,2-0.6,2.9-0.6c0.9,0,1.7,0.2,2.3,0.6c0.7,0.4,1.3,0.9,1.8,1.6c0.5,0.7,0.9,1.4,1.2,2.1
					c0.2,0.8,0.3,1.6,0.1,2.4c-0.2,0.9-0.6,1.8-1.3,2.7c-0.7,1-1.6,1.9-2.9,3c-1.3,1-2.5,1.8-3.6,2.2c-1.1,0.4-2.1,0.7-2.9,0.6
					s-1.7-0.2-2.4-0.6c-0.7-0.4-1.3-0.9-1.8-1.6c-0.5-0.7-0.9-1.4-1.1-2.1c-0.2-0.8-0.3-1.6-0.1-2.4c0.2-0.9,0.6-1.8,1.3-2.7
					c0.7-1,1.7-2,3-3C73.2,258.1,74.4,257.4,75.5,257z M72.8,262.9c-0.5,0.4-1,0.9-1.4,1.5c-0.4,0.5-0.6,1.1-0.8,1.6
					c-0.1,0.6,0,1.1,0.5,1.7c0.4,0.5,1,0.8,1.5,0.8c0.6,0,1.2-0.1,1.8-0.4c0.6-0.3,1.2-0.6,1.7-1c0.6-0.4,1-0.7,1.4-1
					c0.2-0.2,0.5-0.4,0.8-0.7c0.3-0.3,0.6-0.5,0.9-0.9c0.3-0.3,0.6-0.6,0.9-1c0.3-0.3,0.5-0.7,0.6-1.1c0.1-0.4,0.2-0.7,0.1-1.1
					c0-0.4-0.2-0.8-0.5-1.1c-0.3-0.4-0.6-0.6-1-0.7c-0.4-0.1-0.7-0.1-1.1-0.1c-0.4,0.1-0.8,0.2-1.2,0.3c-0.4,0.2-0.8,0.4-1.2,0.6
					c-0.4,0.2-0.7,0.5-1,0.7c-0.3,0.2-0.6,0.5-0.8,0.6C73.7,262.1,73.3,262.5,72.8,262.9z"/>
				<linearGradient id="SVGID_33_" gradientUnits="userSpaceOnUse" x1="42.4336" y1="218.3887" x2="247.2037" y2="479.0051">
					<stop  offset="4.897192e-05" style="stop-color:#DAB066"/>
					<stop  offset="0.2454" style="stop-color:#E6C996"/>
					<stop  offset="0.4745" style="stop-color:#DAB066"/>
					<stop  offset="0.7398" style="stop-color:#E6C996"/>
					<stop  offset="1" style="stop-color:#DAB066"/>
				</linearGradient>
				<path class="st33" d="M100.5,276.3l-19.2,6.8l-1.6-1.4L99,275L100.5,276.3z M86.4,268.1c0.5-0.3,1-0.5,1.6-0.6
					c0.5-0.1,1.1-0.1,1.6,0.1c0.5,0.2,1.1,0.5,1.6,0.9c0.6,0.5,0.9,1,1.2,1.5s0.3,1,0.2,1.6c-0.1,0.5-0.2,1.1-0.5,1.6
					c-0.3,0.5-0.7,1-1.1,1.5s-0.9,0.9-1.4,1.2c-0.5,0.3-1,0.5-1.5,0.6c-0.5,0.1-1,0-1.6-0.1c-0.5-0.2-1.1-0.5-1.6-1
					c-0.6-0.5-0.9-1-1.2-1.5c-0.2-0.5-0.3-1-0.3-1.5c0-0.5,0.2-1,0.5-1.5c0.3-0.5,0.6-1,1.1-1.5S85.9,268.4,86.4,268.1z M86.3,271.6
					c-0.2,0.3-0.4,0.5-0.5,0.8c-0.1,0.3-0.2,0.6-0.1,0.8c0,0.3,0.2,0.5,0.5,0.8c0.3,0.2,0.6,0.4,0.8,0.4c0.3,0,0.6-0.1,0.8-0.2
					c0.3-0.1,0.5-0.3,0.7-0.5c0.2-0.2,0.4-0.4,0.6-0.6c0.2-0.2,0.3-0.4,0.6-0.7c0.2-0.3,0.4-0.6,0.5-0.9c0.1-0.3,0.2-0.6,0.2-0.9
					c0-0.3-0.1-0.6-0.4-0.8c-0.3-0.3-0.6-0.4-0.9-0.4c-0.3,0-0.6,0.1-0.9,0.3c-0.3,0.2-0.6,0.4-0.8,0.6c-0.2,0.2-0.5,0.5-0.6,0.7
					C86.7,271.1,86.5,271.4,86.3,271.6z M90.4,282.3c0.5-0.3,1-0.5,1.5-0.6c0.5-0.1,1.1-0.1,1.6,0.1c0.5,0.2,1.1,0.5,1.6,0.9
					c0.6,0.5,1,1,1.2,1.5s0.3,1,0.2,1.6c0,0.5-0.2,1-0.5,1.6c-0.3,0.5-0.6,1-1.1,1.5s-0.9,0.9-1.4,1.2c-0.5,0.3-1,0.5-1.5,0.6
					c-0.5,0.1-1.1,0.1-1.6-0.1c-0.5-0.2-1.1-0.5-1.6-0.9c-0.6-0.5-0.9-1-1.2-1.5c-0.2-0.5-0.3-1-0.3-1.6c0-0.5,0.2-1,0.5-1.6
					c0.3-0.5,0.6-1,1.1-1.5C89.5,283,89.9,282.6,90.4,282.3z M90.3,285.8c-0.2,0.3-0.4,0.5-0.5,0.8c-0.1,0.3-0.2,0.6-0.2,0.9
					c0,0.3,0.2,0.6,0.5,0.8c0.3,0.2,0.6,0.4,0.9,0.3c0.3,0,0.6-0.1,0.9-0.2c0.3-0.2,0.5-0.3,0.8-0.6c0.2-0.2,0.4-0.4,0.6-0.6
					c0.2-0.2,0.3-0.4,0.5-0.7c0.2-0.3,0.4-0.5,0.5-0.8c0.1-0.3,0.2-0.6,0.2-0.9c0-0.3-0.1-0.6-0.4-0.8c-0.3-0.3-0.6-0.4-0.9-0.4
					c-0.3,0-0.6,0.1-0.8,0.2c-0.3,0.1-0.5,0.3-0.8,0.6c-0.2,0.2-0.4,0.5-0.6,0.7C90.7,285.3,90.5,285.5,90.3,285.8z"/>
				<linearGradient id="SVGID_34_" gradientUnits="userSpaceOnUse" x1="50.197" y1="212.2889" x2="254.967" y2="472.9053">
					<stop  offset="4.897192e-05" style="stop-color:#DAB066"/>
					<stop  offset="0.2454" style="stop-color:#E6C996"/>
					<stop  offset="0.4745" style="stop-color:#DAB066"/>
					<stop  offset="0.7398" style="stop-color:#E6C996"/>
					<stop  offset="1" style="stop-color:#DAB066"/>
				</linearGradient>
				<path class="st34" d="M116.9,287.1l1.4,13.5l0,0l5.1-10.3l3.2,1.6l-7.5,15.4l-3.4-1.7l-1.4-13.4l0,0l-5,10.3l-3.2-1.6l7.5-15.4
					L116.9,287.1z"/>
				<linearGradient id="SVGID_35_" gradientUnits="userSpaceOnUse" x1="56.3585" y1="207.4477" x2="261.1285" y2="468.0641">
					<stop  offset="4.897192e-05" style="stop-color:#DAB066"/>
					<stop  offset="0.2454" style="stop-color:#E6C996"/>
					<stop  offset="0.4745" style="stop-color:#DAB066"/>
					<stop  offset="0.7398" style="stop-color:#E6C996"/>
					<stop  offset="1" style="stop-color:#DAB066"/>
				</linearGradient>
				<path class="st35" d="M138.4,295.7l1.2,18.3l-3.7-1.1l-0.1-4l-6.1-1.8l-2.4,3.3l-3.6-1.1l11.1-14.5L138.4,295.7z M135.5,305.8
					l-0.3-6.6l0,0l-3.9,5.4L135.5,305.8z"/>
				<linearGradient id="SVGID_36_" gradientUnits="userSpaceOnUse" x1="66.7222" y1="199.3047" x2="271.4923" y2="459.9211">
					<stop  offset="4.897192e-05" style="stop-color:#DAB066"/>
					<stop  offset="0.2454" style="stop-color:#E6C996"/>
					<stop  offset="0.4745" style="stop-color:#DAB066"/>
					<stop  offset="0.7398" style="stop-color:#E6C996"/>
					<stop  offset="1" style="stop-color:#DAB066"/>
				</linearGradient>
				<path class="st36" d="M142.9,300.3l0.5-3.1l13.9,2.2l-0.5,3.1l-5.1-0.8l-2.2,13.8l-3.7-0.6l2.2-13.8L142.9,300.3z"/>
				<linearGradient id="SVGID_37_" gradientUnits="userSpaceOnUse" x1="72.5492" y1="194.7264" x2="277.3193" y2="455.3428">
					<stop  offset="4.897192e-05" style="stop-color:#DAB066"/>
					<stop  offset="0.2454" style="stop-color:#E6C996"/>
					<stop  offset="0.4745" style="stop-color:#DAB066"/>
					<stop  offset="0.7398" style="stop-color:#E6C996"/>
					<stop  offset="1" style="stop-color:#DAB066"/>
				</linearGradient>
				<path class="st37" d="M164,299.6l-0.9,17.1l-3.8-0.2l0.9-17.1L164,299.6z"/>
				<linearGradient id="SVGID_38_" gradientUnits="userSpaceOnUse" x1="82.3736" y1="187.0073" x2="287.1436" y2="447.6237">
					<stop  offset="4.897192e-05" style="stop-color:#DAB066"/>
					<stop  offset="0.2454" style="stop-color:#E6C996"/>
					<stop  offset="0.4745" style="stop-color:#DAB066"/>
					<stop  offset="0.7398" style="stop-color:#E6C996"/>
					<stop  offset="1" style="stop-color:#DAB066"/>
				</linearGradient>
				<path class="st38" d="M172.9,316.7l-6.5-16.8l3.9-0.2l4.5,11.8l0,0l3.2-12.2l3.9-0.2l-4.7,17.4L172.9,316.7z"/>
				<linearGradient id="SVGID_39_" gradientUnits="userSpaceOnUse" x1="92.4927" y1="179.0565" x2="297.2627" y2="439.6729">
					<stop  offset="4.897192e-05" style="stop-color:#DAB066"/>
					<stop  offset="0.2454" style="stop-color:#E6C996"/>
					<stop  offset="0.4745" style="stop-color:#DAB066"/>
					<stop  offset="0.7398" style="stop-color:#E6C996"/>
					<stop  offset="1" style="stop-color:#DAB066"/>
				</linearGradient>
				<path class="st39" d="M196.6,296.1l0.6,3.1l-8.9,1.8l0.7,3.6l8.1-1.7l0.6,2.9l-8.1,1.7l0.8,4.1l9-1.9l0.6,3.1l-12.7,2.6
					l-3.5-16.8L196.6,296.1z"/>
				<linearGradient id="SVGID_40_" gradientUnits="userSpaceOnUse" x1="112.6741" y1="163.1997" x2="317.4441" y2="423.8161">
					<stop  offset="4.897192e-05" style="stop-color:#DAB066"/>
					<stop  offset="0.2454" style="stop-color:#E6C996"/>
					<stop  offset="0.4745" style="stop-color:#DAB066"/>
					<stop  offset="0.7398" style="stop-color:#E6C996"/>
					<stop  offset="1" style="stop-color:#DAB066"/>
				</linearGradient>
				<path class="st40" d="M209.3,297.3c-0.1-1.2,0-2.3,0.3-3.3c0.3-1,0.8-2,1.6-2.9c0.8-0.9,1.7-1.6,2.9-2.1
					c1.2-0.6,2.4-0.9,3.5-0.9c1.1,0,2.2,0.2,3.2,0.6c1,0.4,1.9,1.1,2.7,1.9c0.8,0.8,1.5,1.8,2,3c0.5,1.1,0.9,2.3,1,3.4
					c0.1,1.1,0,2.2-0.3,3.3c-0.3,1-0.8,2-1.6,2.8c-0.7,0.9-1.7,1.6-2.9,2.1c-1.2,0.6-2.4,0.9-3.5,0.9c-1.1,0-2.2-0.2-3.2-0.6
					s-1.9-1-2.7-1.8c-0.8-0.8-1.5-1.8-2-2.9C209.8,299.6,209.5,298.5,209.3,297.3z M214.9,301c0.4,0.5,0.9,1,1.5,1.3
					c0.6,0.3,1.2,0.5,1.9,0.6c0.7,0,1.4-0.1,2.2-0.5c0.8-0.4,1.3-0.8,1.7-1.4c0.4-0.5,0.6-1.1,0.7-1.8c0.1-0.6,0.1-1.3-0.1-2
					c-0.1-0.7-0.4-1.4-0.7-2c-0.3-0.7-0.7-1.3-1.2-1.9c-0.5-0.6-1-1-1.5-1.4c-0.6-0.3-1.2-0.5-1.9-0.6c-0.7,0-1.4,0.1-2.2,0.5
					c-0.8,0.4-1.3,0.8-1.7,1.4s-0.6,1.2-0.7,1.8c-0.1,0.7-0.1,1.3,0.1,2c0.1,0.7,0.4,1.4,0.7,2.1C214,299.8,214.4,300.4,214.9,301z"
					/>
				<linearGradient id="SVGID_41_" gradientUnits="userSpaceOnUse" x1="130.6008" y1="149.1145" x2="335.3708" y2="409.7309">
					<stop  offset="4.897192e-05" style="stop-color:#DAB066"/>
					<stop  offset="0.2454" style="stop-color:#E6C996"/>
					<stop  offset="0.4745" style="stop-color:#DAB066"/>
					<stop  offset="0.7398" style="stop-color:#E6C996"/>
					<stop  offset="1" style="stop-color:#DAB066"/>
				</linearGradient>
				<path class="st41" d="M244.8,290.7l-9.2-7.7l0,0l4.6,11.1l-3.1,2.3l-13.8-11.1l3-2.2l9.1,7.8l0,0l-4.5-11.2l2.8-2.1l9.3,7.8l0,0
					l-4.7-11.2l3-2.2l6.4,16.5L244.8,290.7z"/>
				<linearGradient id="SVGID_42_" gradientUnits="userSpaceOnUse" x1="147.8524" y1="135.5596" x2="352.6224" y2="396.176">
					<stop  offset="4.897192e-05" style="stop-color:#DAB066"/>
					<stop  offset="0.2454" style="stop-color:#E6C996"/>
					<stop  offset="0.4745" style="stop-color:#DAB066"/>
					<stop  offset="0.7398" style="stop-color:#E6C996"/>
					<stop  offset="1" style="stop-color:#DAB066"/>
				</linearGradient>
				<path class="st42" d="M245.4,267.5l13.3,2.6l0,0l-8.4-7.8l2.4-2.6l12.5,11.7l-2.6,2.8l-13.3-2.6l0,0l8.4,7.8l-2.4,2.6
					l-12.5-11.7L245.4,267.5z"/>
				<linearGradient id="SVGID_43_" gradientUnits="userSpaceOnUse" x1="162.3895" y1="124.1376" x2="367.1595" y2="384.754">
					<stop  offset="4.897192e-05" style="stop-color:#DAB066"/>
					<stop  offset="0.2454" style="stop-color:#E6C996"/>
					<stop  offset="0.4745" style="stop-color:#DAB066"/>
					<stop  offset="0.7398" style="stop-color:#E6C996"/>
					<stop  offset="1" style="stop-color:#DAB066"/>
				</linearGradient>
				<path class="st43" d="M262.3,245.8l2.6,1.8l-5,7.5l3,2l4.6-6.9l2.4,1.6l-4.6,6.9l3.5,2.3l5.2-7.7l2.6,1.8l-7.3,10.8l-14.2-9.6
					L262.3,245.8z"/>
				<linearGradient id="SVGID_44_" gradientUnits="userSpaceOnUse" x1="174.879" y1="114.3245" x2="379.649" y2="374.9409">
					<stop  offset="4.897192e-05" style="stop-color:#DAB066"/>
					<stop  offset="0.2454" style="stop-color:#E6C996"/>
					<stop  offset="0.4745" style="stop-color:#DAB066"/>
					<stop  offset="0.7398" style="stop-color:#E6C996"/>
					<stop  offset="1" style="stop-color:#DAB066"/>
				</linearGradient>
				<path class="st44" d="M267.1,236.1c0.5-1,1.1-1.9,1.8-2.6c0.7-0.7,1.5-1.2,2.5-1.6c0.9-0.3,2-0.5,3.1-0.4c1.1,0.1,2.3,0.4,3.6,1
					c1.1,0.5,2.1,1.2,2.9,1.9c0.8,0.7,1.4,1.6,1.9,2.5c0.4,0.9,0.6,1.9,0.6,3c0,1.1-0.3,2.2-0.8,3.4l-3.1,6.7l-15.6-7.2L267.1,236.1
					z M279.7,242.2c0.2-0.5,0.4-1,0.4-1.5c0.1-0.5,0-1.1-0.2-1.6c-0.2-0.5-0.6-1-1-1.5c-0.5-0.5-1.2-0.9-2-1.3
					c-0.8-0.4-1.5-0.6-2.2-0.8c-0.7-0.1-1.4-0.1-2,0c-0.6,0.1-1.2,0.4-1.7,0.9c-0.5,0.5-1,1.1-1.3,2l-1.1,2.4l9.8,4.5L279.7,242.2z"
					/>
			</g>
		</g>
		<g id="circle_3_">
			<linearGradient id="SVGID_45_" gradientUnits="userSpaceOnUse" x1="133.5275" y1="146.8149" x2="338.2975" y2="407.4313">
				<stop  offset="4.897192e-05" style="stop-color:#DAB066"/>
				<stop  offset="0.2454" style="stop-color:#E6C996"/>
				<stop  offset="0.4745" style="stop-color:#DAB066"/>
				<stop  offset="0.7398" style="stop-color:#E6C996"/>
				<stop  offset="1" style="stop-color:#DAB066"/>
			</linearGradient>
			<path class="st45" d="M167.9,293.8c-56.9,0-103.2-46.3-103.2-103.2c0-56.9,46.3-103.2,103.2-103.2s103.2,46.3,103.2,103.2
				C271.1,247.5,224.8,293.8,167.9,293.8z M167.9,92.9c-53.9,0-97.7,43.8-97.7,97.7c0,53.9,43.8,97.7,97.7,97.7s97.7-43.8,97.7-97.7
				C265.6,136.7,221.8,92.9,167.9,92.9z"/>
		</g>
	</g>
</g>
</svg>
